<?xml version="1.0" encoding="UTF-8" standalone="no"?><!DOCTYPE svg PUBLIC "-//W3C//DTD SVG 1.1//EN"
        "http://www.w3.org/Graphics/SVG/1.1/DTD/svg11.dtd">
<svg width="100%" height="100%" viewBox="0 0 3384 742" version="1.1"
     xmlns="http://www.w3.org/2000/svg" xmlns:xlink="http://www.w3.org/1999/xlink"
     xml:space="preserve" xmlns:serif="http://www.serif.com/"
     style="fill-rule:evenodd;clip-rule:evenodd;stroke-linejoin:round;stroke-miterlimit:2;"><g><path d="M411.734,405.684c0,34.225 -8.07,64.976 -24.209,92.253c-16.14,27.277 -39.76,48.636 -70.861,64.076c-31.101,15.44 -67.974,23.16 -110.62,23.16c-51.128,-0 -93.303,-10.551 -126.525,-31.652c-23.561,-15.183 -42.704,-35.448 -57.43,-60.795c-14.726,-25.347 -22.089,-49.986 -22.089,-73.918c0,-13.896 4.418,-25.798 13.253,-35.705c8.836,-9.907 20.086,-14.861 33.752,-14.861c11.074,-0 20.439,3.86 28.097,11.58c7.657,7.72 14.195,19.171 19.615,34.354c6.597,18.013 13.724,33.067 21.381,45.161c7.658,12.095 18.437,22.067 32.338,29.915c13.902,7.849 32.162,11.773 54.78,11.773c31.101,0 56.371,-7.913 75.809,-23.739c19.438,-15.826 29.157,-35.576 29.157,-59.25c0,-18.786 -5.242,-34.032 -15.727,-45.741c-10.485,-11.709 -24.033,-20.651 -40.643,-26.827c-16.611,-6.176 -38.818,-12.738 -66.62,-19.686c-37.227,-9.521 -68.387,-20.651 -93.48,-33.389c-25.092,-12.738 -45.002,-30.107 -59.728,-52.109c-14.725,-22.002 -22.088,-49.344 -22.088,-82.025c-0,-31.137 7.775,-58.8 23.325,-82.989c15.551,-24.19 38.052,-42.782 67.504,-55.777c29.451,-12.995 64.086,-19.493 103.905,-19.493c31.808,-0 59.316,4.31 82.524,12.931c23.208,8.621 42.469,20.072 57.784,34.354c15.315,14.282 26.506,29.271 33.575,44.968c7.068,15.698 10.602,31.009 10.602,45.934c0,13.639 -4.418,25.926 -13.253,36.863c-8.836,10.937 -19.85,16.405 -33.045,16.405c-12.016,-0 -21.146,-3.281 -27.39,-9.843c-6.244,-6.562 -13.017,-17.306 -20.321,-32.231c-9.425,-21.358 -20.734,-38.021 -33.929,-49.987c-13.194,-11.965 -34.399,-17.948 -63.615,-17.948c-27.096,-0 -48.949,6.497 -65.56,19.492c-16.61,12.996 -24.916,28.629 -24.916,46.899c0,11.323 2.828,21.101 8.482,29.336c5.655,8.235 13.43,15.311 23.326,21.23c9.896,5.919 19.909,10.551 30.041,13.896c10.131,3.345 26.86,8.234 50.185,14.668c29.216,7.462 55.664,15.697 79.343,24.704c23.679,9.006 43.824,19.943 60.435,32.809c16.611,12.867 29.569,29.143 38.876,48.829c9.307,19.686 13.96,43.811 13.96,72.375Z" style="fill:#ff5733;fill-rule:nonzero;"/><path
        d="M855.276,370.944c-0,31.394 -4.477,60.344 -13.43,86.849c-8.953,26.506 -21.912,49.28 -38.876,68.322c-16.964,19.043 -37.227,33.646 -60.788,43.811c-23.562,10.164 -50.068,15.247 -79.52,15.247c-29.216,-0 -55.487,-5.147 -78.812,-15.44c-23.326,-10.293 -43.53,-25.026 -60.612,-44.197c-17.082,-19.171 -30.041,-41.816 -38.876,-67.936c-8.836,-26.119 -13.253,-55.004 -13.253,-86.656c-0,-31.909 4.476,-61.116 13.43,-87.622c8.953,-26.505 21.794,-49.15 38.522,-67.935c16.729,-18.785 36.992,-33.26 60.789,-43.425c23.797,-10.165 50.067,-15.247 78.812,-15.247c29.216,0 55.723,5.147 79.52,15.44c23.797,10.293 44.177,24.961 61.141,44.004c16.964,19.042 29.864,41.688 38.7,67.935c8.835,26.248 13.253,55.198 13.253,86.85Zm-96.837,-0c-0,-42.974 -8.659,-76.428 -25.976,-100.359c-17.318,-23.932 -40.585,-35.898 -69.801,-35.898c-18.849,-0 -35.46,5.339 -49.832,16.019c-14.372,10.679 -25.446,26.44 -33.221,47.284c-7.776,20.844 -11.663,45.162 -11.663,72.954c-0,27.534 3.828,51.595 11.486,72.182c7.657,20.586 18.613,36.348 32.868,47.284c14.254,10.937 31.042,16.405 50.362,16.405c29.216,0 52.483,-12.03 69.801,-36.091c17.317,-24.06 25.976,-57.32 25.976,-99.78Z"
        style="fill:#ff5733;fill-rule:nonzero;"/><path
        d="M1018.91,215.001l0,12.738c16.965,-24.447 35.519,-42.396 55.664,-53.847c20.145,-11.451 43.294,-17.177 69.447,-17.177c25.446,0 48.183,6.047 68.21,18.142c20.027,12.095 34.989,29.207 44.884,51.338c6.362,12.866 10.485,26.762 12.37,41.688c1.885,14.925 2.827,33.967 2.827,57.127l0,196.087c0,21.101 -4.417,37.056 -13.253,47.864c-8.835,10.808 -20.321,16.212 -34.458,16.212c-14.373,-0 -26.036,-5.533 -34.989,-16.598c-8.953,-11.065 -13.43,-26.891 -13.43,-47.478l0,-175.629c0,-34.74 -4.418,-61.309 -13.253,-79.708c-8.836,-18.4 -26.448,-27.599 -52.836,-27.599c-17.2,-0 -32.868,5.597 -47.005,16.791c-14.137,11.194 -24.504,26.569 -31.101,46.126c-4.712,15.698 -7.068,45.033 -7.068,88.008l-0,132.011c-0,21.359 -4.536,37.378 -13.607,48.057c-9.071,10.679 -20.793,16.019 -35.165,16.019c-13.902,-0 -25.329,-5.533 -34.282,-16.598c-8.953,-11.065 -13.43,-26.891 -13.43,-47.478l-0,-304.552c-0,-20.072 4.005,-35.062 12.016,-44.969c8.011,-9.907 18.967,-14.861 32.868,-14.861c8.482,0 16.14,2.187 22.973,6.562c6.832,4.375 12.31,10.937 16.434,19.686c4.123,8.749 6.184,19.429 6.184,32.038Z"
        style="fill:#ff5733;fill-rule:nonzero;"/><path
        d="M1723.28,233.915l0,306.096c0,34.997 -3.416,65.105 -10.249,90.324c-6.833,25.218 -17.789,46.062 -32.868,62.531c-15.079,16.469 -34.812,28.693 -59.198,36.67c-24.386,7.977 -54.721,11.966 -91.006,11.966c-33.221,-0 -62.908,-5.082 -89.061,-15.247c-26.153,-10.165 -46.298,-23.289 -60.435,-39.372c-14.137,-16.083 -21.205,-32.617 -21.205,-49.6c-0,-12.867 4.005,-23.353 12.016,-31.459c8.011,-8.106 17.671,-12.159 28.98,-12.159c14.137,-0 26.507,6.819 37.109,20.458c5.184,6.948 10.544,13.96 16.081,21.037c5.537,7.076 11.663,13.123 18.378,18.141c6.715,5.018 14.785,8.75 24.209,11.194c9.425,2.445 20.263,3.667 32.515,3.667c24.975,0 44.354,-3.795 58.137,-11.387c13.784,-7.591 23.444,-18.206 28.981,-31.844c5.537,-13.639 8.776,-28.243 9.719,-43.811c0.942,-15.569 1.649,-40.594 2.12,-75.077c-14.843,22.645 -31.984,39.887 -51.422,51.724c-19.438,11.837 -42.587,17.756 -69.447,17.756c-32.279,-0 -60.494,-9.007 -84.644,-27.02c-24.151,-18.013 -42.705,-43.232 -55.664,-75.656c-12.959,-32.423 -19.438,-69.865 -19.438,-112.325c-0,-31.652 3.947,-60.216 11.84,-85.692c7.893,-25.475 19.143,-46.963 33.751,-64.461c14.608,-17.499 31.455,-30.687 50.539,-39.565c19.085,-8.878 40.054,-13.317 62.909,-13.317c27.331,0 51.01,5.726 71.037,17.177c20.027,11.451 38.641,29.4 55.841,53.847l-0,-14.282c-0,-18.271 4.123,-32.424 12.369,-42.46c8.247,-10.036 18.849,-15.054 31.808,-15.054c18.614,0 30.983,6.626 37.109,19.879c6.126,13.253 9.189,32.36 9.189,57.321Zm-279.555,133.555c0,42.717 8.541,75.012 25.623,96.885c17.082,21.874 39.171,32.81 66.266,32.81c16.022,0 31.16,-4.696 45.415,-14.089c14.254,-9.392 25.858,-23.546 34.811,-42.459c8.954,-18.914 13.43,-41.881 13.43,-68.901c0,-42.974 -8.658,-76.428 -25.976,-100.359c-17.317,-23.932 -40.113,-35.898 -68.387,-35.898c-27.566,-0 -49.655,11.451 -66.266,34.354c-16.611,22.902 -24.916,55.455 -24.916,97.657Z"
        style="fill:#ff5733;fill-rule:nonzero;"/><path
        d="M2083.06,277.532l-176.71,215.773l189.079,0c15.315,0 26.86,3.925 34.635,11.773c7.776,7.849 11.663,17.949 11.663,30.301c0,11.837 -3.829,21.487 -11.486,28.95c-7.657,7.463 -19.261,11.194 -34.812,11.194l-261.53,-0c-18.378,-0 -32.103,-4.375 -41.174,-13.124c-9.071,-8.749 -13.607,-20.715 -13.607,-35.898c0,-9.007 3.181,-18.077 9.543,-27.213c6.361,-9.135 19.556,-25.926 39.583,-50.372c21.205,-25.734 40.466,-49.022 57.784,-69.866c17.318,-20.844 33.398,-40.337 48.242,-58.479c14.843,-18.142 27.154,-33.517 36.932,-46.127c9.778,-12.609 17.612,-23.417 23.503,-32.423l-143.489,-0c-19.791,-0 -34.753,-1.93 -44.884,-5.79c-10.132,-3.86 -15.197,-14.025 -15.197,-30.494c-0,-12.095 3.828,-21.745 11.486,-28.95c7.657,-7.205 18.554,-10.808 32.691,-10.808l221.594,0c20.499,0 36.226,3.281 47.182,9.843c10.956,6.562 16.434,18.335 16.434,35.319c0,5.661 -1.06,11.515 -3.181,17.563c-2.12,6.047 -4.476,11.001 -7.068,14.861c-2.592,3.86 -6.126,8.556 -10.603,14.089c-4.476,5.532 -10.013,12.159 -16.61,19.878Z"
        style="fill-rule:nonzero;"/><path
        d="M2441.78,525.729c-23.326,19.815 -45.886,34.676 -67.68,44.583c-21.794,9.907 -46.239,14.861 -73.335,14.861c-24.739,-0 -46.475,-5.34 -65.206,-16.019c-18.731,-10.679 -33.162,-25.154 -43.294,-43.425c-10.131,-18.27 -15.197,-38.085 -15.197,-59.444c0,-28.821 8.364,-53.396 25.093,-73.725c16.729,-20.329 39.701,-33.968 68.917,-40.916c6.126,-1.544 21.323,-5.018 45.591,-10.422c24.268,-5.404 45.061,-10.357 62.379,-14.861c17.317,-4.503 36.107,-9.971 56.37,-16.405c-1.178,-27.792 -6.303,-48.185 -15.374,-61.18c-9.071,-12.996 -27.861,-19.493 -56.37,-19.493c-24.504,-0 -42.941,3.731 -55.31,11.194c-12.37,7.462 -22.973,18.656 -31.808,33.581c-8.836,14.926 -15.079,24.769 -18.731,29.529c-3.652,4.761 -11.487,7.141 -23.503,7.141c-10.838,0 -20.204,-3.795 -28.097,-11.387c-7.893,-7.591 -11.839,-17.305 -11.839,-29.142c-0,-18.528 6.008,-36.542 18.024,-54.04c12.016,-17.499 30.748,-31.909 56.194,-43.232c25.446,-11.323 57.136,-16.984 95.07,-16.984c42.41,0 75.75,5.468 100.018,16.405c24.268,10.937 41.409,28.242 51.422,51.917c10.014,23.674 15.021,55.069 15.021,94.183c-0,24.704 -0.059,45.677 -0.177,62.918c-0.118,17.241 -0.295,36.412 -0.53,57.514c-0,19.814 3.004,40.465 9.012,61.952c6.008,21.487 9.012,35.319 9.012,41.495c0,10.808 -4.653,20.651 -13.96,29.529c-9.307,8.878 -19.85,13.317 -31.631,13.317c-9.896,-0 -19.674,-5.083 -29.334,-15.247c-9.66,-10.165 -19.909,-24.897 -30.747,-44.197Zm-6.362,-152.469c-14.137,5.661 -34.694,11.644 -61.672,17.949c-26.977,6.304 -45.65,10.936 -56.017,13.896c-10.367,2.959 -20.262,8.749 -29.687,17.37c-9.425,8.62 -14.137,20.651 -14.137,36.09c0,15.955 5.537,29.529 16.611,40.723c11.074,11.194 25.564,16.791 43.471,16.791c19.084,0 36.696,-4.567 52.836,-13.703c16.139,-9.135 27.979,-20.908 35.519,-35.319c8.717,-15.954 13.076,-42.202 13.076,-78.743l0,-15.054Z"
        style="fill-rule:nonzero;"/><path
        d="M2707.55,60.216l0,160.961c18.143,-20.587 36.638,-36.348 55.487,-47.285c18.849,-10.937 42.175,-16.405 69.977,-16.405c32.044,0 60.141,8.299 84.291,24.897c24.15,16.598 42.882,40.658 56.194,72.182c13.312,31.523 19.968,68.9 19.968,112.132c-0,31.909 -3.711,61.181 -11.133,87.815c-7.422,26.633 -18.201,49.729 -32.338,69.286c-14.136,19.557 -31.277,34.676 -51.422,45.355c-20.145,10.679 -42.352,16.019 -66.62,16.019c-14.844,-0 -28.804,-1.93 -41.88,-5.79c-13.077,-3.86 -24.209,-8.942 -33.398,-15.247c-9.189,-6.305 -17.023,-12.802 -23.503,-19.493c-6.479,-6.691 -15.02,-16.727 -25.623,-30.108l0,10.422c0,19.815 -4.358,34.804 -13.076,44.969c-8.718,10.164 -19.792,15.247 -33.222,15.247c-13.665,-0 -24.562,-5.083 -32.691,-15.247c-8.129,-10.165 -12.193,-25.154 -12.193,-44.969l0,-460.109c0,-21.359 3.947,-37.506 11.84,-48.443c7.893,-10.937 18.908,-16.405 33.044,-16.405c14.844,-0 26.271,5.211 34.282,15.633c8.011,10.422 12.016,25.283 12.016,44.583Zm4.595,313.044c-0,41.945 8.776,74.176 26.33,96.692c17.553,22.517 40.584,33.775 69.093,33.775c24.268,0 45.179,-11.515 62.732,-34.547c17.553,-23.031 26.33,-56.034 26.33,-99.008c-0,-27.792 -3.652,-51.724 -10.956,-71.796c-7.304,-20.072 -17.671,-35.576 -31.101,-46.512c-13.43,-10.937 -29.098,-16.405 -47.005,-16.405c-18.378,-0 -34.753,5.468 -49.125,16.405c-14.373,10.936 -25.682,26.762 -33.928,47.477c-8.247,20.716 -12.37,45.355 -12.37,73.919Z"
        style="fill-rule:nonzero;"/><path
        d="M3150.38,598.297l8.836,-23.546l-118.749,-326.554c-7.304,-18.786 -10.956,-32.424 -10.956,-40.916c-0,-9.007 2.12,-17.37 6.361,-25.09c4.241,-7.72 10.073,-13.896 17.495,-18.528c7.421,-4.632 15.138,-6.948 23.149,-6.948c13.901,0 24.386,4.825 31.454,14.475c7.068,9.65 13.312,23.482 18.731,41.495l81.64,259.39l77.399,-241.248c6.126,-19.557 11.663,-34.869 16.611,-45.934c4.948,-11.065 10.19,-18.528 15.727,-22.388c5.537,-3.86 13.371,-5.79 23.503,-5.79c7.304,0 14.313,2.123 21.028,6.369c6.715,4.246 11.898,9.972 15.55,17.177c3.652,7.205 5.478,14.797 5.478,22.774c-0.942,4.889 -2.473,11.837 -4.594,20.844c-2.12,9.006 -4.712,18.142 -7.775,27.406l-125.818,359.75c-10.838,31.651 -21.44,56.484 -31.807,74.497c-10.367,18.013 -24.092,31.845 -41.174,41.495c-17.082,9.65 -40.113,14.475 -69.093,14.475c-28.274,-0 -49.479,-3.345 -63.616,-10.036c-14.137,-6.691 -21.205,-18.914 -21.205,-36.67c-0,-12.094 3.357,-21.423 10.072,-27.985c6.715,-6.562 16.67,-9.843 29.864,-9.843c5.184,0 10.249,0.772 15.197,2.316c6.126,1.544 11.428,2.316 15.904,2.316c11.074,0 19.792,-1.801 26.153,-5.404c6.362,-3.602 12.075,-9.843 17.141,-18.72c5.066,-8.878 10.897,-21.938 17.494,-39.179Z"
        style="fill-rule:nonzero;"/></g></svg>