<?xml version="1.0" encoding="UTF-8" standalone="no"?><!DOCTYPE svg PUBLIC "-//W3C//DTD SVG 1.1//EN" "http://www.w3.org/Graphics/SVG/1.1/DTD/svg11.dtd"><svg width="100%" height="100%" viewBox="0 0 5119 896" version="1.1" xmlns="http://www.w3.org/2000/svg" xmlns:xlink="http://www.w3.org/1999/xlink" xml:space="preserve" xmlns:serif="http://www.serif.com/" style="fill-rule:evenodd;clip-rule:evenodd;stroke-linejoin:round;stroke-miterlimit:2;"><g><g><g><g><g><path d="M437.865,-0c241.664,-0 437.864,200.157 437.864,446.694c0,246.538 -196.2,446.695 -437.864,446.695c-241.664,-0 -437.865,-200.157 -437.865,-446.695c0,-246.537 196.201,-446.694 437.865,-446.694Zm382.793,463.235c-0.156,3.821 -0.366,7.628 -0.629,11.418c-1.612,23.23 -5.22,45.907 -10.648,67.852l-0.162,0.651l-0.294,1.172c-0.099,0.389 -0.198,0.779 -0.297,1.169l-0.3,1.169c-2.415,9.32 -5.158,18.506 -8.218,27.543c-7.711,22.77 -17.427,44.59 -28.935,65.242l-0.395,0.707l-0.07,0.125c-9.135,16.298 -19.387,31.863 -30.649,46.586l-0.115,0.15l-0.281,0.366c-0.379,0.494 -0.76,0.988 -1.142,1.481c-1.899,2.45 -3.833,4.884 -5.795,7.294c-3.101,3.81 -6.267,7.553 -9.501,11.233l-0.27,0.307l-0.689,0.782c-0.801,0.904 -1.6,1.799 -2.404,2.69l-0.779,0.862l-0.708,0.777c-0.331,0.363 -0.658,0.72 -0.985,1.077c-2.846,3.097 -5.732,6.138 -8.666,9.13c-2.568,2.62 -5.172,5.202 -7.811,7.747l-0.436,0.42c-2.38,2.287 -4.781,4.537 -7.211,6.756c-1.01,0.923 -2.015,1.831 -3.025,2.735c-2.234,1.997 -4.481,3.96 -6.75,5.897l-0.21,0.18l-0.884,0.751c-0.544,0.461 -1.082,0.914 -1.621,1.366c-2.151,1.801 -4.311,3.572 -6.491,5.319l-0.848,0.678c-0.302,0.24 -0.605,0.481 -0.908,0.721l-0.91,0.719c-0.508,0.4 -1.03,0.809 -1.553,1.216c-15.254,11.883 -31.406,22.623 -48.333,32.096c-2.604,1.456 -5.23,2.886 -7.875,4.285c-7.07,3.74 -14.262,7.26 -21.573,10.553l-1.067,0.478c-24.546,10.967 -50.44,19.38 -77.351,24.913c-1.954,0.401 -3.907,0.787 -5.866,1.157c-1.663,0.314 -3.319,0.616 -4.979,0.906c-1.795,0.315 -3.604,0.618 -5.417,0.908c-1.662,0.266 -3.329,0.521 -4.999,0.766l-1.192,0.172l-1.194,0.169c-2.339,0.326 -4.691,0.632 -7.048,0.916c-1.996,0.241 -3.999,0.465 -6.006,0.674c-2.881,0.301 -5.75,0.566 -8.628,0.799c-10.132,0.82 -20.356,1.237 -30.675,1.237c-51.278,-0 -100.217,-10.299 -144.921,-28.973c-0.669,-0.279 -1.335,-0.559 -2,-0.842l-1.077,-0.459c-1.765,-0.756 -3.519,-1.523 -5.266,-2.302l-0.092,-0.041l-0.712,-0.319c-15.483,-6.952 -30.421,-14.916 -44.742,-23.811c-4.413,-2.741 -8.759,-5.564 -13.045,-8.473c-0.859,-0.584 -1.725,-1.177 -2.588,-1.773l-0.662,-0.458l-0.171,-0.119c-7.56,-5.251 -14.928,-10.773 -22.089,-16.55c-0.39,-0.315 -0.77,-0.623 -1.15,-0.932c-4.645,-3.778 -9.207,-7.666 -13.677,-11.658l-0.215,-0.192l-0.761,-0.683c-1.758,-1.58 -3.496,-3.172 -5.22,-4.78c-0.355,-0.331 -0.71,-0.664 -1.065,-0.998l-0.642,-0.603l-0.335,-0.318c-2.879,-2.724 -5.724,-5.5 -8.527,-8.32c-0.832,-0.837 -1.669,-1.687 -2.502,-2.54l-0.215,-0.22l-0.809,-0.833l-0.212,-0.219c-1.608,-1.663 -3.2,-3.339 -4.778,-5.03l-0.605,-0.649c-0.263,-0.284 -0.526,-0.568 -0.789,-0.852l-0.787,-0.855l-0.785,-0.857c-0.353,-0.388 -0.704,-0.774 -1.054,-1.16c-0.873,-0.964 -1.733,-1.924 -2.588,-2.888c-2.423,-2.731 -4.809,-5.496 -7.157,-8.296c-7.564,-9.02 -14.727,-18.389 -21.468,-28.085c-2.695,-3.876 -5.333,-7.82 -7.9,-11.813c-0.308,-0.479 -0.617,-0.961 -0.924,-1.444c-3.422,-5.374 -6.711,-10.829 -9.871,-16.369l-0.361,-0.634l-0.579,-1.022l-0.505,-0.899c-31.996,-57.09 -50.286,-123.178 -50.286,-193.589c0,-130.187 62.526,-245.593 158.596,-316.649c39.129,-28.943 83.836,-50.529 132.149,-62.749l0.131,-0.033c0.384,-0.097 0.769,-0.193 1.153,-0.29l1.025,-0.253c0.44,-0.109 0.861,-0.212 1.283,-0.314c3.427,-0.831 6.853,-1.61 10.295,-2.343l0.158,-0.033l0.094,-0.02c11.962,-2.536 24.122,-4.502 36.457,-5.87c4.166,-0.462 8.361,-0.856 12.574,-1.181l0.972,-0.074l0.725,-0.053c0.554,-0.041 1.132,-0.081 1.711,-0.121c8.536,-0.58 17.139,-0.874 25.809,-0.874c211.456,-0 383.131,175.137 383.131,390.857c0,5.544 -0.113,11.062 -0.338,16.541Z"/><path d="M437.865,167.51c151.04,0 273.665,125.099 273.665,279.184c0,154.086 -122.625,279.184 -273.665,279.184c-151.04,0 -273.666,-125.098 -273.666,-279.184c0,-154.085 122.626,-279.184 273.666,-279.184Zm-0,55.837c120.832,0 218.932,100.079 218.932,223.347c-0,123.269 -98.1,223.348 -218.932,223.348c-120.832,-0 -218.933,-100.079 -218.933,-223.348c0,-123.268 98.101,-223.347 218.933,-223.347Z" style="fill:#ff5733;"/><path d="M437.865,55.837c211.456,-0 383.131,175.137 383.131,390.857c0,215.721 -171.675,390.858 -383.131,390.858c-211.456,-0 -383.132,-175.137 -383.132,-390.858c0,-215.72 171.676,-390.857 383.132,-390.857Zm-0,55.837c181.248,-0 328.398,150.117 328.398,335.02c0,184.903 -147.15,335.021 -328.398,335.021c-181.248,0 -328.399,-150.118 -328.399,-335.021c0,-184.903 147.151,-335.02 328.399,-335.02Z" style="fill:#ff5733;"/><path d="M437.865,111.674c181.248,-0 328.398,150.117 328.398,335.02c0,184.903 -147.15,335.021 -328.398,335.021c-181.248,0 -328.399,-150.118 -328.399,-335.021c0,-184.903 147.151,-335.02 328.399,-335.02Zm-0,55.836c151.04,0 273.665,125.099 273.665,279.184c0,154.086 -122.625,279.184 -273.665,279.184c-151.04,0 -273.666,-125.098 -273.666,-279.184c0,-154.085 122.626,-279.184 273.666,-279.184Z"/><path d="M437.865,223.347c120.832,0 218.932,100.079 218.932,223.347c-0,123.269 -98.1,223.348 -218.932,223.348c-120.832,-0 -218.933,-100.079 -218.933,-223.348c0,-123.268 98.101,-223.347 218.933,-223.347Zm-0,55.837c90.624,-0 164.199,75.059 164.199,167.51c-0,92.452 -73.575,167.511 -164.199,167.511c-90.624,-0 -164.2,-75.059 -164.2,-167.511c0,-92.451 73.576,-167.51 164.2,-167.51Z"/><path d="M437.865,279.184c90.624,-0 164.199,75.059 164.199,167.51c-0,92.452 -73.575,167.511 -164.199,167.511c-90.624,-0 -164.2,-75.059 -164.2,-167.511c0,-92.451 73.576,-167.51 164.2,-167.51Zm-0,55.837c60.416,-0 109.466,50.039 109.466,111.673c-0,61.635 -49.05,111.674 -109.466,111.674c-60.416,-0 -109.467,-50.039 -109.467,-111.674c0,-61.634 49.051,-111.673 109.467,-111.673Z" style="fill:#ff5733;"/><ellipse cx="437.865" cy="446.694" rx="109.466" ry="111.674"/></g><path d="M774.656,562.873l-651.829,-287.488l-21.753,51.332l651.828,287.488l21.754,-51.332Z" style="fill:#ff5733;"/></g><path d="M437.865,475.107l-434.273,13.672l49.738,-184.34l384.535,170.668Z"/><path d="M437.865,414.03l434.256,-14.207l-49.519,184.401l-384.737,-170.194Z"/></g></g><g><g><g><path d="M1261.24,740.106c-45,-0 -88.473,-6.389 -130.417,-19.167c-41.944,-12.778 -75.139,-29.722 -99.583,-50.833l37.5,-84.167c23.889,18.889 53.194,34.306 87.916,46.25c34.723,11.944 69.584,17.917 104.584,17.917c43.333,-0 75.694,-6.945 97.083,-20.834c21.389,-13.889 32.083,-32.222 32.083,-55c0,-16.666 -5.972,-30.416 -17.916,-41.25c-11.945,-10.833 -27.084,-19.305 -45.417,-25.416c-18.333,-6.111 -43.333,-13.056 -75,-20.834c-44.444,-10.555 -80.417,-21.111 -107.917,-31.666c-27.5,-10.556 -51.111,-27.084 -70.833,-49.584c-19.722,-22.5 -29.583,-52.916 -29.583,-91.25c-0,-32.222 8.75,-61.527 26.25,-87.916c17.5,-26.389 43.889,-47.361 79.166,-62.917c35.278,-15.556 78.473,-23.333 129.584,-23.333c35.555,-0 70.555,4.444 105,13.333c34.444,8.889 64.166,21.667 89.166,38.333l-34.166,84.167c-25.556,-15 -52.223,-26.389 -80,-34.167c-27.778,-7.777 -54.723,-11.666 -80.834,-11.666c-42.777,-0 -74.583,7.222 -95.416,21.666c-20.834,14.445 -31.25,33.611 -31.25,57.5c-0,16.667 5.972,30.278 17.916,40.834c11.945,10.555 27.084,18.889 45.417,25c18.333,6.111 43.333,13.055 75,20.833c43.333,10 78.889,20.417 106.667,31.25c27.777,10.833 51.527,27.361 71.25,49.583c19.722,22.223 29.583,52.223 29.583,90c-0,32.223 -8.75,61.389 -26.25,87.5c-17.5,26.111 -44.028,46.945 -79.583,62.5c-35.556,15.556 -78.889,23.334 -130,23.334Z" style="fill:#ff5733;fill-rule:nonzero;"/><path d="M1787.87,737.46c-43.875,-0 -83.417,-9.479 -118.625,-28.438c-35.209,-18.958 -62.698,-45.364 -82.469,-79.218c-19.771,-33.855 -29.656,-72.178 -29.656,-114.969c-0,-42.792 9.885,-80.979 29.656,-114.563c19.771,-33.583 47.26,-59.854 82.469,-78.812c35.208,-18.959 74.75,-28.438 118.625,-28.438c44.416,0 84.229,9.479 119.437,28.438c35.208,18.958 62.698,45.229 82.469,78.812c19.771,33.584 29.656,71.771 29.656,114.563c0,42.791 -9.885,81.114 -29.656,114.969c-19.771,33.854 -47.261,60.26 -82.469,79.218c-35.208,18.959 -75.021,28.438 -119.437,28.438Zm-0,-86.938c37.375,0 68.25,-12.458 92.625,-37.375c24.375,-24.916 36.562,-57.687 36.562,-98.312c0,-40.625 -12.187,-73.396 -36.562,-98.313c-24.375,-24.916 -55.25,-37.375 -92.625,-37.375c-37.375,0 -68.115,12.459 -92.219,37.375c-24.104,24.917 -36.156,57.688 -36.156,98.313c-0,40.625 12.052,73.396 36.156,98.312c24.104,24.917 54.844,37.375 92.219,37.375Z" style="fill:#ff5733;fill-rule:nonzero;"/><path d="M2363.12,293.022c54.708,0 98.583,15.979 131.625,47.938c33.041,31.958 49.562,79.354 49.562,142.187l0,248.625l-101.562,0l-0,-235.625c-0,-37.916 -8.938,-66.489 -26.813,-85.718c-17.875,-19.23 -43.333,-28.844 -76.375,-28.844c-37.375,-0 -66.896,11.239 -88.562,33.719c-21.667,22.479 -32.5,54.843 -32.5,97.093l-0,219.375l-101.563,0l0,-433.875l96.688,0l-0,56.063c16.791,-20.042 37.916,-35.209 63.375,-45.5c25.458,-10.292 54.166,-15.438 86.125,-15.438Z" style="fill:#ff5733;fill-rule:nonzero;"/><path d="M3108.18,297.897l0,368.063c0,152.75 -78,229.125 -234,229.125c-41.708,-0 -81.25,-5.281 -118.625,-15.844c-37.375,-10.562 -68.25,-25.865 -92.625,-45.906l45.5,-76.375c18.958,15.708 42.927,28.302 71.906,37.781c28.98,9.479 58.365,14.219 88.157,14.219c47.666,-0 82.604,-10.834 104.812,-32.5c22.208,-21.667 33.313,-54.709 33.313,-99.125l-0,-22.75c-17.334,18.958 -38.459,33.312 -63.375,43.062c-24.917,9.75 -52.271,14.625 -82.063,14.625c-41.167,0 -78.406,-8.802 -111.719,-26.406c-33.312,-17.604 -59.583,-42.385 -78.812,-74.344c-19.229,-31.958 -28.844,-68.521 -28.844,-109.687c0,-41.167 9.615,-77.594 28.844,-109.281c19.229,-31.688 45.5,-56.198 78.812,-73.532c33.313,-17.333 70.552,-26 111.719,-26c31.417,0 59.99,5.146 85.719,15.438c25.729,10.291 47.26,26 64.594,47.125l-0,-57.688l96.687,0Zm-231.562,328.25c38.458,0 70.01,-11.51 94.656,-34.531c24.646,-23.021 36.969,-52.948 36.969,-89.781c-0,-36.292 -12.323,-65.813 -36.969,-88.563c-24.646,-22.75 -56.198,-34.125 -94.656,-34.125c-39,0 -70.823,11.375 -95.469,34.125c-24.646,22.75 -36.969,52.271 -36.969,88.563c0,36.833 12.323,66.76 36.969,89.781c24.646,23.021 56.469,34.531 95.469,34.531Z" style="fill:#ff5733;fill-rule:nonzero;"/><path d="M3580.24,650.522l-0,81.25l-374.563,0l0,-64.187l238.063,-288.438l-233.188,0l0,-81.25l363.188,0l-0,64.188l-238.875,288.437l245.375,0Z" style="fill-rule:nonzero;"/><path d="M3839.43,293.022c63.917,0 112.802,15.302 146.656,45.907c33.855,30.604 50.782,76.781 50.782,138.531l-0,254.312l-95.875,0l-0,-52.812c-12.459,18.958 -30.198,33.448 -53.219,43.469c-23.021,10.02 -50.781,15.031 -83.281,15.031c-32.5,-0 -60.938,-5.552 -85.313,-16.656c-24.375,-11.105 -43.198,-26.542 -56.469,-46.313c-13.27,-19.771 -19.906,-42.115 -19.906,-67.031c0,-39 14.49,-70.281 43.469,-93.844c28.979,-23.562 74.614,-35.344 136.906,-35.344l112.125,0l0,-6.5c0,-30.333 -9.073,-53.625 -27.219,-69.875c-18.145,-16.25 -45.093,-24.375 -80.843,-24.375c-24.375,0 -48.344,3.792 -71.907,11.375c-23.562,7.584 -43.468,18.146 -59.718,31.688l-39.813,-73.938c22.75,-17.333 50.104,-30.604 82.063,-39.812c31.958,-9.209 65.812,-13.813 101.562,-13.813Zm-13.812,370.5c25.458,0 48.073,-5.823 67.843,-17.468c19.771,-11.646 33.719,-28.303 41.844,-49.969l0,-50.375l-104.812,-0c-58.5,-0 -87.75,19.229 -87.75,57.687c-0,18.417 7.312,33.042 21.937,43.875c14.625,10.834 34.938,16.25 60.938,16.25Z" style="fill-rule:nonzero;"/><path d="M4407.37,293.022c42.25,0 80.031,9.209 113.343,27.625c33.313,18.417 59.448,44.417 78.407,78c18.958,33.584 28.437,72.313 28.437,116.188c0,43.875 -9.479,82.739 -28.437,116.594c-18.959,33.854 -45.094,59.989 -78.407,78.406c-33.312,18.416 -71.093,27.625 -113.343,27.625c-29.792,-0 -57.011,-5.146 -81.657,-15.438c-24.645,-10.291 -45.364,-25.729 -62.156,-46.312l0,56.062l-96.687,0l-0,-602.875l101.562,0l0,221.813c17.333,-18.959 37.781,-33.313 61.344,-43.063c23.562,-9.75 49.427,-14.625 77.594,-14.625Zm-11.375,357.5c37.375,0 68.114,-12.458 92.218,-37.375c24.105,-24.916 36.157,-57.687 36.157,-98.312c-0,-40.625 -12.052,-73.396 -36.157,-98.313c-24.104,-24.916 -54.843,-37.375 -92.218,-37.375c-24.375,0 -46.313,5.552 -65.813,16.657c-19.5,11.104 -34.937,26.947 -46.312,47.531c-11.375,20.583 -17.063,44.416 -17.063,71.5c0,27.083 5.688,50.916 17.063,71.5c11.375,20.583 26.812,36.427 46.312,47.531c19.5,11.104 41.438,16.656 65.813,16.656Z" style="fill-rule:nonzero;"/><path d="M5118.3,297.897l-203.125,468.813c-18.958,47.125 -41.979,80.302 -69.062,99.531c-27.084,19.229 -59.855,28.844 -98.313,28.844c-21.667,-0 -43.062,-3.521 -64.187,-10.563c-21.125,-7.041 -38.459,-16.791 -52,-29.25l40.625,-74.75c9.75,9.209 21.26,16.521 34.531,21.938c13.271,5.416 26.677,8.125 40.219,8.125c17.875,-0 32.635,-4.604 44.281,-13.813c11.646,-9.208 22.344,-24.646 32.094,-46.312l7.312,-17.063l-189.312,-435.5l105.625,0l136.5,320.938l137.312,-320.938l97.5,0Z" style="fill-rule:nonzero;"/></g></g></g></g></svg>