<?xml version="1.0" encoding="UTF-8" standalone="no"?>
<!DOCTYPE svg PUBLIC "-//W3C//DTD SVG 1.1//EN" "http://www.w3.org/Graphics/SVG/1.1/DTD/svg11.dtd">
<svg width="100%" height="100%" viewBox="0 0 5890 1192" version="1.1" xmlns="http://www.w3.org/2000/svg" xmlns:xlink="http://www.w3.org/1999/xlink" xml:space="preserve" xmlns:serif="http://www.serif.com/" style="fill-rule:evenodd;clip-rule:evenodd;stroke-linejoin:round;stroke-miterlimit:2;">
    <g transform="matrix(1.33333,0,0,1.33333,-3814.6,-7005.02)">
        <g>
            <g transform="matrix(0.729774,0,0,0.744491,776.076,1585.17)">
                <g transform="matrix(1,0,0,1,4.62619,-23.0097)">
                    <g transform="matrix(1,0,0,1,2.96575,2.11283)">
                        <g transform="matrix(1,0,0,1,4.30908,44.6033)">
                            <path d="M3444.98,4903.94C3776.12,4903.94 4044.98,5172.8 4044.98,5503.94C4044.98,5835.09 3776.12,6103.94 3444.98,6103.94C3113.83,6103.94 2844.98,5835.09 2844.98,5503.94C2844.98,5172.8 3113.83,4903.94 3444.98,4903.94ZM3969.51,5526.16C3969.3,5531.29 3969.01,5536.41 3968.65,5541.5C3966.44,5572.7 3961.5,5603.16 3954.06,5632.64L3953.84,5633.51L3953.43,5635.09C3953.3,5635.61 3953.16,5636.13 3953.03,5636.66L3952.62,5638.23C3949.31,5650.74 3945.55,5663.08 3941.36,5675.22C3930.79,5705.81 3917.47,5735.12 3901.71,5762.85L3901.17,5763.81L3901.07,5763.97C3888.55,5785.86 3874.5,5806.77 3859.07,5826.55L3858.91,5826.75L3858.53,5827.24C3858.01,5827.9 3857.49,5828.57 3856.96,5829.23C3854.36,5832.52 3851.71,5835.79 3849.02,5839.03C3844.77,5844.15 3840.43,5849.17 3836,5854.11L3835.64,5854.53L3834.69,5855.58C3833.59,5856.79 3832.5,5857.99 3831.4,5859.19L3830.33,5860.35L3829.36,5861.39C3828.91,5861.88 3828.46,5862.36 3828.01,5862.84C3824.11,5867 3820.15,5871.08 3816.13,5875.1C3812.61,5878.62 3809.05,5882.09 3805.43,5885.51L3804.83,5886.07C3801.57,5889.14 3798.28,5892.17 3794.95,5895.15C3793.57,5896.39 3792.19,5897.61 3790.81,5898.82C3787.74,5901.5 3784.67,5904.14 3781.56,5906.74L3781.27,5906.98L3780.06,5907.99C3779.31,5908.61 3778.58,5909.22 3777.84,5909.83C3774.89,5912.25 3771.93,5914.62 3768.94,5916.97L3767.78,5917.88C3767.37,5918.2 3766.95,5918.53 3766.54,5918.85L3765.29,5919.82C3764.59,5920.35 3763.88,5920.9 3763.16,5921.45C3742.26,5937.41 3720.13,5951.84 3696.93,5964.56C3693.36,5966.52 3689.76,5968.44 3686.14,5970.32C3676.45,5975.34 3666.6,5980.07 3656.58,5984.49L3655.12,5985.13C3621.48,5999.86 3586,6011.16 3549.12,6018.6C3546.45,6019.14 3543.77,6019.65 3541.09,6020.15C3538.81,6020.57 3536.54,6020.98 3534.26,6021.37C3531.8,6021.79 3529.33,6022.2 3526.84,6022.59C3524.56,6022.94 3522.28,6023.29 3519.99,6023.61L3518.36,6023.85L3516.72,6024.07C3513.51,6024.51 3510.29,6024.92 3507.06,6025.3C3504.33,6025.63 3501.58,6025.93 3498.83,6026.21C3494.89,6026.61 3490.95,6026.97 3487.01,6027.28C3473.13,6028.38 3459.12,6028.94 3444.98,6028.94C3374.71,6028.94 3307.65,6015.11 3246.39,5990.03C3245.48,5989.65 3244.56,5989.28 3243.65,5988.9L3242.18,5988.28C3239.76,5987.27 3237.35,5986.23 3234.96,5985.19L3234.84,5985.13L3233.86,5984.7C3212.64,5975.37 3192.17,5964.67 3172.55,5952.72C3166.5,5949.04 3160.55,5945.25 3154.68,5941.34C3153.5,5940.56 3152.31,5939.76 3151.13,5938.96L3150.22,5938.34L3149.99,5938.19C3139.63,5931.13 3129.53,5923.71 3119.72,5915.95C3119.18,5915.53 3118.66,5915.12 3118.14,5914.7C3111.78,5909.63 3105.53,5904.41 3099.4,5899.04L3099.11,5898.79L3098.06,5897.87C3095.65,5895.75 3093.27,5893.61 3090.91,5891.45C3090.43,5891 3089.94,5890.56 3089.45,5890.11L3088.57,5889.3L3088.11,5888.87C3084.17,5885.21 3080.27,5881.48 3076.43,5877.69C3075.29,5876.57 3074.14,5875.43 3073,5874.28L3072.71,5873.99L3071.6,5872.87L3071.31,5872.57C3069.1,5870.34 3066.92,5868.09 3064.76,5865.82L3063.93,5864.95C3063.57,5864.57 3063.21,5864.18 3062.85,5863.8L3061.77,5862.65L3060.7,5861.5C3060.21,5860.98 3059.73,5860.46 3059.25,5859.94C3058.05,5858.65 3056.88,5857.36 3055.7,5856.07C3052.38,5852.4 3049.11,5848.68 3045.9,5844.92C3035.53,5832.81 3025.72,5820.22 3016.48,5807.2C3012.79,5801.99 3009.17,5796.69 3005.65,5791.33C3005.23,5790.69 3004.81,5790.04 3004.39,5789.39C2999.7,5782.17 2995.19,5774.85 2990.86,5767.4L2990.37,5766.55L2989.57,5765.18L2988.88,5763.97C2945.04,5687.29 2919.98,5598.52 2919.98,5503.94C2919.98,5329.08 3005.66,5174.06 3137.3,5078.62C3190.91,5039.74 3252.18,5010.75 3318.38,4994.34L3318.56,4994.29C3319.09,4994.16 3319.61,4994.03 3320.14,4993.9L3321.54,4993.56C3322.15,4993.42 3322.72,4993.28 3323.3,4993.14C3328,4992.03 3332.69,4990.98 3337.41,4989.99L3337.62,4989.95L3337.75,4989.92C3354.14,4986.52 3370.81,4983.88 3387.71,4982.04C3393.42,4981.42 3399.17,4980.89 3404.94,4980.45L3406.27,4980.35L3407.27,4980.28C3408.03,4980.23 3408.82,4980.17 3409.61,4980.12C3421.31,4979.34 3433.1,4978.94 3444.98,4978.94C3734.73,4978.94 3969.98,5214.19 3969.98,5503.94C3969.98,5511.39 3969.82,5518.8 3969.51,5526.16Z"/>
                        </g>
                        <g transform="matrix(1,0,0,1,4.30908,44.6033)">
                            <path d="M3444.98,5128.94C3651.94,5128.94 3819.98,5296.98 3819.98,5503.94C3819.98,5710.91 3651.94,5878.94 3444.98,5878.94C3238.01,5878.94 3069.98,5710.91 3069.98,5503.94C3069.98,5296.98 3238.01,5128.94 3444.98,5128.94ZM3444.98,5203.94C3610.55,5203.94 3744.98,5338.37 3744.98,5503.94C3744.98,5669.52 3610.55,5803.94 3444.98,5803.94C3279.4,5803.94 3144.98,5669.52 3144.98,5503.94C3144.98,5338.37 3279.4,5203.94 3444.98,5203.94Z" style="fill:rgb(255,87,51);"/>
                        </g>
                        <g transform="matrix(1,0,0,1,4.30908,44.6033)">
                            <path d="M3444.98,4978.94C3734.73,4978.94 3969.98,5214.19 3969.98,5503.94C3969.98,5793.7 3734.73,6028.94 3444.98,6028.94C3155.22,6028.94 2919.98,5793.7 2919.98,5503.94C2919.98,5214.19 3155.22,4978.94 3444.98,4978.94ZM3444.98,5053.94C3693.34,5053.94 3894.98,5255.58 3894.98,5503.94C3894.98,5752.31 3693.34,5953.94 3444.98,5953.94C3196.61,5953.94 2994.98,5752.31 2994.98,5503.94C2994.98,5255.58 3196.61,5053.94 3444.98,5053.94Z" style="fill:rgb(255,87,51);"/>
                        </g>
                        <g transform="matrix(1,0,0,1,4.30908,44.6033)">
                            <path d="M3444.98,5053.94C3693.34,5053.94 3894.98,5255.58 3894.98,5503.94C3894.98,5752.31 3693.34,5953.94 3444.98,5953.94C3196.61,5953.94 2994.98,5752.31 2994.98,5503.94C2994.98,5255.58 3196.61,5053.94 3444.98,5053.94ZM3444.98,5128.94C3651.94,5128.94 3819.98,5296.98 3819.98,5503.94C3819.98,5710.91 3651.94,5878.94 3444.98,5878.94C3238.01,5878.94 3069.98,5710.91 3069.98,5503.94C3069.98,5296.98 3238.01,5128.94 3444.98,5128.94Z"/>
                        </g>
                        <g transform="matrix(1,0,0,1,4.30908,44.6033)">
                            <path d="M3444.98,5203.94C3610.55,5203.94 3744.98,5338.37 3744.98,5503.94C3744.98,5669.52 3610.55,5803.94 3444.98,5803.94C3279.4,5803.94 3144.98,5669.52 3144.98,5503.94C3144.98,5338.37 3279.4,5203.94 3444.98,5203.94ZM3444.98,5278.94C3569.16,5278.94 3669.98,5379.76 3669.98,5503.94C3669.98,5628.12 3569.16,5728.94 3444.98,5728.94C3320.8,5728.94 3219.98,5628.12 3219.98,5503.94C3219.98,5379.76 3320.8,5278.94 3444.98,5278.94Z"/>
                        </g>
                        <g transform="matrix(1,0,0,1,4.30908,44.6033)">
                            <path d="M3444.98,5278.94C3569.16,5278.94 3669.98,5379.76 3669.98,5503.94C3669.98,5628.12 3569.16,5728.94 3444.98,5728.94C3320.8,5728.94 3219.98,5628.12 3219.98,5503.94C3219.98,5379.76 3320.8,5278.94 3444.98,5278.94ZM3444.98,5353.94C3527.76,5353.94 3594.98,5421.16 3594.98,5503.94C3594.98,5586.73 3527.76,5653.94 3444.98,5653.94C3362.19,5653.94 3294.98,5586.73 3294.98,5503.94C3294.98,5421.16 3362.19,5353.94 3444.98,5353.94Z" style="fill:rgb(255,87,51);"/>
                        </g>
                        <g transform="matrix(2.08149,0,0,1.82658,-3775.37,-4508.08)">
                            <ellipse cx="3470.91" cy="5505.72" rx="72.064" ry="82.121"/>
                        </g>
                    </g>
                    <g transform="matrix(0.917891,0.396832,-0.304874,0.705186,1662.25,439.452)">
                        <rect x="3183.76" y="5130.11" width="973.091" height="97.774" style="fill:rgb(255,87,51);"/>
                    </g>
                </g>
                <path d="M3456.88,5565.81L2861.8,5584.18L2929.95,5336.57L3456.88,5565.81Z"/>
                <path d="M3456.88,5483.78L4051.93,5464.69L3984.08,5712.38L3456.88,5483.78Z"/>
            </g>
            <g>
                <g transform="matrix(1.1482,0,0,1.25404,1530.65,-4145.16)">
                    <path d="M2417.3,7939.56C2417.3,7966.85 2410.28,7991.38 2396.22,8013.13C2382.16,8034.88 2361.59,8051.91 2334.5,8064.22C2307.42,8076.53 2275.3,8082.69 2238.16,8082.69C2193.63,8082.69 2156.9,8074.28 2127.97,8057.45C2107.45,8045.34 2090.77,8029.18 2077.95,8008.97C2065.12,7988.76 2058.71,7969.11 2058.71,7950.03C2058.71,7938.95 2062.56,7929.46 2070.25,7921.56C2077.95,7913.65 2087.75,7909.7 2099.65,7909.7C2109.29,7909.7 2117.45,7912.78 2124.12,7918.94C2130.79,7925.1 2136.48,7934.23 2141.2,7946.33C2146.95,7960.7 2153.16,7972.7 2159.82,7982.35C2166.49,7991.99 2175.88,7999.94 2187.99,8006.2C2200.1,8012.46 2216,8015.59 2235.7,8015.59C2262.78,8015.59 2284.79,8009.28 2301.72,7996.66C2318.65,7984.04 2327.12,7968.29 2327.12,7949.41C2327.12,7934.43 2322.55,7922.27 2313.42,7912.94C2304.29,7903.6 2292.49,7896.47 2278.02,7891.54C2263.55,7886.62 2244.21,7881.39 2220,7875.85C2187.58,7868.25 2160.44,7859.38 2138.59,7849.22C2116.73,7839.06 2099.39,7825.21 2086.57,7807.67C2073.74,7790.12 2067.33,7768.32 2067.33,7742.26C2067.33,7717.43 2074.1,7695.37 2087.64,7676.08C2101.19,7656.79 2120.78,7641.97 2146.43,7631.6C2172.09,7621.24 2202.25,7616.06 2236.93,7616.06C2264.63,7616.06 2288.59,7619.5 2308.8,7626.37C2329.01,7633.24 2345.79,7642.38 2359.13,7653.77C2372.47,7665.15 2382.21,7677.11 2388.37,7689.62C2394.53,7702.14 2397.6,7714.35 2397.6,7726.25C2397.6,7737.13 2393.76,7746.93 2386.06,7755.65C2378.37,7764.37 2368.77,7768.73 2357.28,7768.73C2346.82,7768.73 2338.86,7766.11 2333.43,7760.88C2327.99,7755.65 2322.09,7747.08 2315.73,7735.18C2307.52,7718.15 2297.67,7704.86 2286.18,7695.32C2274.69,7685.78 2256.22,7681.01 2230.77,7681.01C2207.18,7681.01 2188.14,7686.19 2173.68,7696.55C2159.21,7706.91 2151.98,7719.38 2151.98,7733.95C2151.98,7742.98 2154.44,7750.78 2159.36,7757.34C2164.29,7763.91 2171.06,7769.55 2179.68,7774.27C2188.3,7778.99 2197.02,7782.68 2205.84,7785.35C2214.66,7788.02 2229.24,7791.92 2249.55,7797.05C2274.99,7803 2298.03,7809.57 2318.65,7816.75C2339.28,7823.93 2356.82,7832.65 2371.29,7842.91C2385.75,7853.17 2397.04,7866.15 2405.14,7881.85C2413.25,7897.55 2417.3,7916.78 2417.3,7939.56Z" style="fill:rgb(255,87,51);fill-rule:nonzero;"/>
                </g>
                <g transform="matrix(1.1482,0,0,1.25404,1530.65,-4145.16)">
                    <path d="M2803.6,7911.86C2803.6,7936.89 2799.7,7959.98 2791.9,7981.12C2784.1,8002.25 2772.82,8020.41 2758.04,8035.6C2743.27,8050.78 2725.62,8062.43 2705.1,8070.53C2684.58,8078.64 2661.49,8082.69 2635.84,8082.69C2610.4,8082.69 2587.52,8078.59 2567.2,8070.38C2546.89,8062.17 2529.29,8050.42 2514.42,8035.14C2499.54,8019.85 2488.25,8001.79 2480.56,7980.96C2472.86,7960.13 2469.01,7937.1 2469.01,7911.86C2469.01,7886.41 2472.91,7863.12 2480.71,7841.99C2488.51,7820.85 2499.69,7802.79 2514.26,7787.81C2528.83,7772.83 2546.48,7761.29 2567.2,7753.19C2587.93,7745.08 2610.81,7741.03 2635.84,7741.03C2661.29,7741.03 2684.38,7745.13 2705.1,7753.34C2725.83,7761.55 2743.58,7773.24 2758.35,7788.43C2773.12,7803.61 2784.36,7821.67 2792.05,7842.6C2799.75,7863.53 2803.6,7886.62 2803.6,7911.86ZM2719.26,7911.86C2719.26,7877.59 2711.72,7850.91 2696.64,7831.83C2681.55,7812.75 2661.29,7803.2 2635.84,7803.2C2619.43,7803.2 2604.96,7807.46 2592.44,7815.98C2579.93,7824.49 2570.28,7837.06 2563.51,7853.68C2556.74,7870.31 2553.35,7889.7 2553.35,7911.86C2553.35,7933.82 2556.69,7953 2563.36,7969.42C2570.03,7985.84 2579.57,7998.4 2591.98,8007.12C2604.4,8015.85 2619.02,8020.21 2635.84,8020.21C2661.29,8020.21 2681.55,8010.61 2696.64,7991.43C2711.72,7972.24 2719.26,7945.72 2719.26,7911.86Z" style="fill:rgb(255,87,51);fill-rule:nonzero;"/>
                </g>
                <g transform="matrix(1.1482,0,0,1.25404,1530.65,-4145.16)">
                    <path d="M2946.11,7787.51L2946.11,7797.66C2960.89,7778.17 2977.05,7763.86 2994.59,7754.73C3012.14,7745.59 3032.3,7741.03 3055.07,7741.03C3077.24,7741.03 3097.04,7745.85 3114.48,7755.49C3131.92,7765.14 3144.95,7778.78 3153.57,7796.43C3159.11,7806.69 3162.7,7817.77 3164.35,7829.68C3165.99,7841.58 3166.81,7856.76 3166.81,7875.23L3166.81,8031.6C3166.81,8048.42 3162.96,8061.15 3155.26,8069.76C3147.57,8078.38 3137.57,8082.69 3125.25,8082.69C3112.74,8082.69 3102.58,8078.28 3094.78,8069.45C3086.98,8060.63 3083.08,8048.01 3083.08,8031.6L3083.08,7891.54C3083.08,7863.84 3079.24,7842.65 3071.54,7827.98C3063.85,7813.31 3048.51,7805.98 3025.53,7805.98C3010.55,7805.98 2996.9,7810.44 2984.59,7819.36C2972.28,7828.29 2963.25,7840.55 2957.5,7856.15C2953.4,7868.66 2951.34,7892.06 2951.34,7926.33L2951.34,8031.6C2951.34,8048.63 2947.39,8061.4 2939.49,8069.92C2931.59,8078.43 2921.38,8082.69 2908.87,8082.69C2896.76,8082.69 2886.81,8078.28 2879.01,8069.45C2871.21,8060.63 2867.31,8048.01 2867.31,8031.6L2867.31,7788.74C2867.31,7772.73 2870.8,7760.78 2877.78,7752.88C2884.76,7744.98 2894.3,7741.03 2906.41,7741.03C2913.79,7741.03 2920.46,7742.77 2926.41,7746.26C2932.36,7749.75 2937.13,7754.98 2940.72,7761.96C2944.32,7768.94 2946.11,7777.45 2946.11,7787.51Z" style="fill:rgb(255,87,51);fill-rule:nonzero;"/>
                </g>
                <g transform="matrix(1.1482,0,0,1.25404,1530.65,-4145.16)">
                    <path d="M3559.57,7802.59L3559.57,8046.68C3559.57,8074.59 3556.59,8098.59 3550.64,8118.7C3544.69,8138.81 3535.15,8155.44 3522.01,8168.57C3508.88,8181.7 3491.7,8191.45 3470.46,8197.81C3449.22,8204.17 3422.8,8207.35 3391.2,8207.35C3362.26,8207.35 3336.41,8203.3 3313.63,8195.19C3290.85,8187.09 3273.31,8176.62 3260.99,8163.8C3248.68,8150.97 3242.53,8137.79 3242.53,8124.24C3242.53,8113.98 3246.01,8105.62 3252.99,8099.16C3259.97,8092.7 3268.38,8089.46 3278.23,8089.46C3290.55,8089.46 3301.32,8094.9 3310.55,8105.78C3315.07,8111.32 3319.74,8116.91 3324.56,8122.55C3329.38,8128.2 3334.71,8133.02 3340.56,8137.02C3346.41,8141.02 3353.44,8143.99 3361.65,8145.95C3369.86,8147.89 3379.3,8148.87 3389.97,8148.87C3411.72,8148.87 3428.6,8145.84 3440.6,8139.79C3452.6,8133.74 3461.02,8125.27 3465.84,8114.4C3470.66,8103.52 3473.48,8091.87 3474.3,8079.46C3475.12,8067.04 3475.74,8047.09 3476.15,8019.59C3463.22,8037.65 3448.29,8051.4 3431.37,8060.84C3414.44,8070.28 3394.28,8075 3370.88,8075C3342.77,8075 3318.2,8067.81 3297.16,8053.45C3276.13,8039.09 3259.97,8018.98 3248.68,7993.12C3237.4,7967.26 3231.75,7937.41 3231.75,7903.55C3231.75,7878.31 3235.19,7855.53 3242.07,7835.22C3248.94,7814.9 3258.74,7797.77 3271.46,7783.81C3284.18,7769.86 3298.86,7759.34 3315.48,7752.26C3332.1,7745.18 3350.36,7741.64 3370.27,7741.64C3394.07,7741.64 3414.69,7746.21 3432.14,7755.34C3449.58,7764.47 3465.79,7778.78 3480.77,7798.28L3480.77,7786.89C3480.77,7772.32 3484.36,7761.03 3491.54,7753.03C3498.72,7745.03 3507.96,7741.03 3519.24,7741.03C3535.45,7741.03 3546.23,7746.31 3551.56,7756.88C3556.9,7767.45 3559.57,7782.68 3559.57,7802.59ZM3316.09,7909.09C3316.09,7943.15 3323.53,7968.91 3338.41,7986.35C3353.28,8003.79 3372.52,8012.51 3396.12,8012.51C3410.08,8012.51 3423.26,8008.77 3435.67,8001.28C3448.09,7993.79 3458.2,7982.5 3465.99,7967.42C3473.79,7952.34 3477.69,7934.02 3477.69,7912.48C3477.69,7878.21 3470.15,7851.53 3455.07,7832.45C3439.98,7813.36 3420.13,7803.82 3395.51,7803.82C3371.5,7803.82 3352.26,7812.95 3337.79,7831.22C3323.33,7849.48 3316.09,7875.44 3316.09,7909.09Z" style="fill:rgb(255,87,51);fill-rule:nonzero;"/>
                </g>
                <g transform="matrix(1.1482,0,0,1.25404,1530.65,-4145.16)">
                    <path d="M3872.91,7837.37L3719.01,8009.43L3883.68,8009.43C3897.02,8009.43 3907.08,8012.56 3913.85,8018.82C3920.62,8025.08 3924.01,8033.13 3924.01,8042.98C3924.01,8052.42 3920.67,8060.12 3914,8066.07C3907.33,8072.02 3897.23,8075 3883.68,8075L3655.91,8075C3639.9,8075 3627.95,8071.51 3620.05,8064.53C3612.15,8057.55 3608.2,8048.01 3608.2,8035.9C3608.2,8028.72 3610.97,8021.49 3616.51,8014.2C3622.05,8006.92 3633.54,7993.53 3650.98,7974.04C3669.45,7953.52 3686.23,7934.95 3701.31,7918.32C3716.39,7901.7 3730.4,7886.16 3743.33,7871.69C3756.25,7857.22 3766.97,7844.96 3775.49,7834.91C3784.01,7824.85 3790.83,7816.24 3795.96,7809.05L3670.99,7809.05C3653.75,7809.05 3640.72,7807.51 3631.9,7804.44C3623.08,7801.36 3618.66,7793.25 3618.66,7780.12C3618.66,7770.48 3622,7762.78 3628.67,7757.03C3635.34,7751.29 3644.83,7748.41 3657.14,7748.41L3850.13,7748.41C3867.99,7748.41 3881.68,7751.03 3891.22,7756.26C3900.77,7761.5 3905.54,7770.89 3905.54,7784.43C3905.54,7788.94 3904.61,7793.61 3902.77,7798.43C3900.92,7803.26 3898.87,7807.21 3896.61,7810.28C3894.35,7813.36 3891.28,7817.11 3887.38,7821.52C3883.48,7825.93 3878.66,7831.22 3872.91,7837.37Z" style="fill-rule:nonzero;"/>
                </g>
                <g transform="matrix(1.1482,0,0,1.25404,1530.65,-4145.16)">
                    <path d="M4185.33,8035.29C4165.02,8051.09 4145.37,8062.94 4126.39,8070.84C4107.41,8078.74 4086.12,8082.69 4062.52,8082.69C4040.97,8082.69 4022.04,8078.43 4005.73,8069.92C3989.41,8061.4 3976.85,8049.86 3968.02,8035.29C3959.2,8020.72 3954.79,8004.92 3954.79,7987.89C3954.79,7964.9 3962.07,7945.31 3976.64,7929.1C3991.21,7912.89 4011.22,7902.01 4036.66,7896.47C4042,7895.24 4055.23,7892.47 4076.37,7888.16C4097.51,7883.85 4115.61,7879.9 4130.7,7876.31C4145.78,7872.72 4162.14,7868.36 4179.79,7863.23C4178.77,7841.06 4174.3,7824.8 4166.4,7814.44C4158.5,7804.08 4142.14,7798.9 4117.31,7798.9C4095.97,7798.9 4079.91,7801.87 4069.14,7807.82C4058.36,7813.77 4049.13,7822.7 4041.43,7834.6C4033.74,7846.5 4028.3,7854.35 4025.12,7858.15C4021.94,7861.94 4015.12,7863.84 4004.65,7863.84C3995.21,7863.84 3987.06,7860.82 3980.18,7854.76C3973.31,7848.71 3969.87,7840.96 3969.87,7831.52C3969.87,7816.75 3975.1,7802.38 3985.57,7788.43C3996.03,7774.48 4012.35,7762.99 4034.51,7753.96C4056.67,7744.93 4084.27,7740.41 4117.31,7740.41C4154.24,7740.41 4183.28,7744.77 4204.42,7753.49C4225.55,7762.22 4240.48,7776.02 4249.2,7794.89C4257.92,7813.77 4262.28,7838.81 4262.28,7870C4262.28,7889.7 4262.23,7906.42 4262.13,7920.17C4262.03,7933.92 4261.87,7949.21 4261.67,7966.03C4261.67,7981.83 4264.28,7998.3 4269.52,8015.44C4274.75,8032.57 4277.37,8043.6 4277.37,8048.53C4277.37,8057.14 4273.31,8064.99 4265.21,8072.07C4257.1,8079.15 4247.92,8082.69 4237.66,8082.69C4229.04,8082.69 4220.52,8078.64 4212.11,8070.53C4203.7,8062.43 4194.77,8050.68 4185.33,8035.29ZM4179.79,7913.71C4167.48,7918.22 4149.58,7922.99 4126.08,7928.02C4102.58,7933.05 4086.32,7936.74 4077.29,7939.1C4068.26,7941.46 4059.64,7946.08 4051.44,7952.95C4043.23,7959.83 4039.12,7969.42 4039.12,7981.73C4039.12,7994.45 4043.95,8005.28 4053.59,8014.2C4063.24,8023.13 4075.86,8027.59 4091.45,8027.59C4108.07,8027.59 4123.41,8023.95 4137.47,8016.67C4151.52,8009.38 4161.84,7999.99 4168.4,7988.5C4175.99,7975.78 4179.79,7954.85 4179.79,7925.71L4179.79,7913.71Z" style="fill-rule:nonzero;"/>
                </g>
                <g transform="matrix(1.1482,0,0,1.25404,1530.65,-4145.16)">
                    <path d="M4416.8,7664.08L4416.8,7792.43C4432.6,7776.02 4448.71,7763.45 4465.13,7754.73C4481.54,7746 4501.86,7741.64 4526.07,7741.64C4553.98,7741.64 4578.45,7748.26 4599.48,7761.5C4620.52,7774.73 4636.83,7793.92 4648.42,7819.06C4660.02,7844.19 4665.82,7874 4665.82,7908.47C4665.82,7933.92 4662.58,7957.26 4656.12,7978.5C4649.65,7999.74 4640.27,8018.15 4627.95,8033.75C4615.64,8049.35 4600.71,8061.4 4583.17,8069.92C4565.62,8078.43 4546.28,8082.69 4525.15,8082.69C4512.22,8082.69 4500.06,8081.15 4488.67,8078.07C4477.28,8075 4467.59,8070.94 4459.59,8065.92C4451.58,8060.89 4444.76,8055.71 4439.12,8050.37C4433.47,8045.04 4426.03,8037.03 4416.8,8026.36L4416.8,8034.67C4416.8,8050.47 4413.01,8062.43 4405.41,8070.53C4397.82,8078.64 4388.18,8082.69 4376.48,8082.69C4364.58,8082.69 4355.09,8078.64 4348.01,8070.53C4340.93,8062.43 4337.39,8050.47 4337.39,8034.67L4337.39,7667.77C4337.39,7650.74 4340.82,7637.86 4347.7,7629.14C4354.57,7620.42 4364.17,7616.06 4376.48,7616.06C4389.41,7616.06 4399.36,7620.22 4406.34,7628.53C4413.31,7636.84 4416.8,7648.69 4416.8,7664.08ZM4420.8,7913.71C4420.8,7947.15 4428.45,7972.86 4443.73,7990.81C4459.02,8008.77 4479.08,8017.74 4503.91,8017.74C4525.05,8017.74 4543.26,8008.56 4558.55,7990.2C4573.83,7971.83 4581.48,7945.51 4581.48,7911.24C4581.48,7889.08 4578.3,7870 4571.94,7853.99C4565.57,7837.99 4556.54,7825.62 4544.85,7816.9C4533.15,7808.18 4519.51,7803.82 4503.91,7803.82C4487.9,7803.82 4473.64,7808.18 4461.12,7816.9C4448.61,7825.62 4438.76,7838.24 4431.58,7854.76C4424.39,7871.28 4420.8,7890.93 4420.8,7913.71Z" style="fill-rule:nonzero;"/>
                </g>
                <g transform="matrix(1.1482,0,0,1.25404,1530.65,-4145.16)">
                    <path d="M4802.48,8093.16L4810.18,8074.38L4706.75,7813.98C4700.39,7799 4697.21,7788.12 4697.21,7781.35C4697.21,7774.17 4699.06,7767.5 4702.75,7761.34C4706.44,7755.19 4711.52,7750.26 4717.99,7746.57C4724.45,7742.88 4731.17,7741.03 4738.15,7741.03C4750.26,7741.03 4759.39,7744.88 4765.54,7752.57C4771.7,7760.27 4777.14,7771.3 4781.86,7785.66L4852.96,7992.5L4920.37,7800.13C4925.7,7784.53 4930.53,7772.32 4934.84,7763.5C4939.15,7754.67 4943.71,7748.72 4948.53,7745.65C4953.36,7742.57 4960.18,7741.03 4969,7741.03C4975.36,7741.03 4981.47,7742.72 4987.32,7746.11C4993.16,7749.49 4997.68,7754.06 5000.86,7759.8C5004.04,7765.55 5005.63,7771.6 5005.63,7777.97C5004.81,7781.86 5003.48,7787.4 5001.63,7794.59C4999.78,7801.77 4997.53,7809.05 4994.86,7816.44L4885.28,8103.31C4875.84,8128.55 4866.61,8148.36 4857.58,8162.72C4848.55,8177.08 4836.6,8188.11 4821.72,8195.81C4806.84,8203.5 4786.78,8207.35 4761.54,8207.35C4736.92,8207.35 4718.45,8204.68 4706.14,8199.35C4693.82,8194.01 4687.67,8184.27 4687.67,8170.11C4687.67,8160.46 4690.59,8153.02 4696.44,8147.79C4702.29,8142.56 4710.96,8139.94 4722.45,8139.94C4726.97,8139.94 4731.38,8140.56 4735.69,8141.79C4741.02,8143.02 4745.64,8143.64 4749.54,8143.64C4759.18,8143.64 4766.78,8142.2 4772.32,8139.33C4777.86,8136.45 4782.83,8131.48 4787.24,8124.4C4791.66,8117.32 4796.73,8106.9 4802.48,8093.16Z" style="fill-rule:nonzero;"/>
                </g>
            </g>
        </g>
    </g>
</svg>
