<?xml version="1.0" encoding="UTF-8" standalone="no"?><!DOCTYPE svg PUBLIC "-//W3C//DTD SVG 1.1//EN"
        "http://www.w3.org/Graphics/SVG/1.1/DTD/svg11.dtd">
<svg width="100%" height="100%" viewBox="0 0 4418 894" version="1.1"
     xmlns="http://www.w3.org/2000/svg" xmlns:xlink="http://www.w3.org/1999/xlink"
     xml:space="preserve" xmlns:serif="http://www.serif.com/"
     style="fill-rule:evenodd;clip-rule:evenodd;stroke-linejoin:round;stroke-miterlimit:2;"><g><g><g><g><g><path d="M437.865,-0c241.664,-0 437.864,200.157 437.864,446.694c0,246.538 -196.2,446.695 -437.864,446.695c-241.664,-0 -437.865,-200.157 -437.865,-446.695c0,-246.537 196.201,-446.694 437.865,-446.694Zm382.793,463.235c-0.156,3.821 -0.366,7.628 -0.629,11.418c-1.612,23.23 -5.22,45.907 -10.648,67.852l-0.162,0.651l-0.294,1.172c-0.099,0.389 -0.198,0.779 -0.297,1.169l-0.3,1.169c-2.415,9.32 -5.158,18.506 -8.218,27.543c-7.711,22.77 -17.427,44.59 -28.935,65.242l-0.395,0.707l-0.07,0.125c-9.135,16.298 -19.387,31.863 -30.649,46.586l-0.115,0.15l-0.281,0.366c-0.379,0.494 -0.76,0.988 -1.142,1.481c-1.899,2.45 -3.833,4.884 -5.795,7.294c-3.101,3.81 -6.267,7.553 -9.501,11.233l-0.27,0.307l-0.689,0.782c-0.801,0.904 -1.6,1.799 -2.404,2.69l-0.779,0.862l-0.708,0.777c-0.331,0.363 -0.658,0.72 -0.985,1.077c-2.846,3.097 -5.732,6.138 -8.666,9.13c-2.568,2.62 -5.172,5.202 -7.811,7.747l-0.436,0.42c-2.38,2.287 -4.781,4.537 -7.211,6.756c-1.01,0.923 -2.015,1.831 -3.025,2.735c-2.234,1.997 -4.481,3.96 -6.75,5.897l-0.21,0.18l-0.884,0.751c-0.544,0.461 -1.082,0.914 -1.621,1.366c-2.151,1.801 -4.311,3.572 -6.491,5.319l-0.848,0.678c-0.302,0.24 -0.605,0.481 -0.908,0.721l-0.91,0.719c-0.508,0.4 -1.03,0.809 -1.553,1.216c-15.254,11.883 -31.406,22.623 -48.333,32.096c-2.604,1.456 -5.23,2.886 -7.875,4.285c-7.07,3.74 -14.262,7.26 -21.573,10.553l-1.067,0.478c-24.546,10.967 -50.44,19.38 -77.351,24.913c-1.954,0.401 -3.907,0.787 -5.866,1.157c-1.663,0.314 -3.319,0.616 -4.979,0.906c-1.795,0.315 -3.604,0.618 -5.417,0.908c-1.662,0.266 -3.329,0.521 -4.999,0.766l-1.192,0.172l-1.194,0.169c-2.339,0.326 -4.691,0.632 -7.048,0.916c-1.996,0.241 -3.999,0.465 -6.006,0.674c-2.881,0.301 -5.75,0.566 -8.628,0.799c-10.132,0.82 -20.356,1.237 -30.675,1.237c-51.278,-0 -100.217,-10.299 -144.921,-28.973c-0.669,-0.279 -1.335,-0.559 -2,-0.842l-1.077,-0.459c-1.765,-0.756 -3.519,-1.523 -5.266,-2.302l-0.092,-0.041l-0.712,-0.319c-15.483,-6.952 -30.421,-14.916 -44.742,-23.811c-4.413,-2.741 -8.759,-5.564 -13.045,-8.473c-0.859,-0.584 -1.725,-1.177 -2.588,-1.773l-0.662,-0.458l-0.171,-0.119c-7.56,-5.251 -14.928,-10.773 -22.089,-16.55c-0.39,-0.315 -0.77,-0.623 -1.15,-0.932c-4.645,-3.778 -9.207,-7.666 -13.677,-11.658l-0.215,-0.192l-0.761,-0.683c-1.758,-1.58 -3.496,-3.172 -5.22,-4.78c-0.355,-0.331 -0.71,-0.664 -1.065,-0.998l-0.642,-0.603l-0.335,-0.318c-2.879,-2.724 -5.724,-5.5 -8.527,-8.32c-0.832,-0.837 -1.669,-1.687 -2.502,-2.54l-0.215,-0.22l-0.809,-0.833l-0.212,-0.219c-1.608,-1.663 -3.2,-3.339 -4.778,-5.03l-0.605,-0.649c-0.263,-0.284 -0.526,-0.568 -0.789,-0.852l-0.787,-0.855l-0.785,-0.857c-0.353,-0.388 -0.704,-0.774 -1.054,-1.16c-0.873,-0.964 -1.733,-1.924 -2.588,-2.888c-2.423,-2.731 -4.809,-5.496 -7.157,-8.296c-7.564,-9.02 -14.727,-18.389 -21.468,-28.085c-2.695,-3.876 -5.333,-7.82 -7.9,-11.813c-0.308,-0.479 -0.617,-0.961 -0.924,-1.444c-3.422,-5.374 -6.711,-10.829 -9.871,-16.369l-0.361,-0.634l-0.579,-1.022l-0.505,-0.899c-31.996,-57.09 -50.286,-123.178 -50.286,-193.589c0,-130.187 62.526,-245.593 158.596,-316.649c39.129,-28.943 83.836,-50.529 132.149,-62.749l0.131,-0.033c0.384,-0.097 0.769,-0.193 1.153,-0.29l1.025,-0.253c0.44,-0.109 0.861,-0.212 1.283,-0.314c3.427,-0.831 6.853,-1.61 10.295,-2.343l0.158,-0.033l0.094,-0.02c11.962,-2.536 24.122,-4.502 36.457,-5.87c4.166,-0.462 8.361,-0.856 12.574,-1.181l0.972,-0.074l0.725,-0.053c0.554,-0.041 1.132,-0.081 1.711,-0.121c8.536,-0.58 17.139,-0.874 25.809,-0.874c211.456,-0 383.131,175.137 383.131,390.857c0,5.544 -0.113,11.062 -0.338,16.541Z"/><path
        d="M437.865,167.51c151.04,0 273.665,125.099 273.665,279.184c0,154.086 -122.625,279.184 -273.665,279.184c-151.04,0 -273.666,-125.098 -273.666,-279.184c0,-154.085 122.626,-279.184 273.666,-279.184Zm-0,55.837c120.832,0 218.932,100.079 218.932,223.347c-0,123.269 -98.1,223.348 -218.932,223.348c-120.832,-0 -218.933,-100.079 -218.933,-223.348c0,-123.268 98.101,-223.347 218.933,-223.347Z"
        style="fill:#ff5733;"/><path
        d="M437.865,55.837c211.456,-0 383.131,175.137 383.131,390.857c0,215.721 -171.675,390.858 -383.131,390.858c-211.456,-0 -383.132,-175.137 -383.132,-390.858c0,-215.72 171.676,-390.857 383.132,-390.857Zm-0,55.837c181.248,-0 328.398,150.117 328.398,335.02c0,184.903 -147.15,335.021 -328.398,335.021c-181.248,0 -328.399,-150.118 -328.399,-335.021c0,-184.903 147.151,-335.02 328.399,-335.02Z"
        style="fill:#ff5733;"/><path
        d="M437.865,111.674c181.248,-0 328.398,150.117 328.398,335.02c0,184.903 -147.15,335.021 -328.398,335.021c-181.248,0 -328.399,-150.118 -328.399,-335.021c0,-184.903 147.151,-335.02 328.399,-335.02Zm-0,55.836c151.04,0 273.665,125.099 273.665,279.184c0,154.086 -122.625,279.184 -273.665,279.184c-151.04,0 -273.666,-125.098 -273.666,-279.184c0,-154.085 122.626,-279.184 273.666,-279.184Z"/><path
        d="M437.865,223.347c120.832,0 218.932,100.079 218.932,223.347c-0,123.269 -98.1,223.348 -218.932,223.348c-120.832,-0 -218.933,-100.079 -218.933,-223.348c0,-123.268 98.101,-223.347 218.933,-223.347Zm-0,55.837c90.624,-0 164.199,75.059 164.199,167.51c-0,92.452 -73.575,167.511 -164.199,167.511c-90.624,-0 -164.2,-75.059 -164.2,-167.511c0,-92.451 73.576,-167.51 164.2,-167.51Z"/><path
        d="M437.865,279.184c90.624,-0 164.199,75.059 164.199,167.51c-0,92.452 -73.575,167.511 -164.199,167.511c-90.624,-0 -164.2,-75.059 -164.2,-167.511c0,-92.451 73.576,-167.51 164.2,-167.51Zm-0,55.837c60.416,-0 109.466,50.039 109.466,111.673c-0,61.635 -49.05,111.674 -109.466,111.674c-60.416,-0 -109.467,-50.039 -109.467,-111.674c0,-61.634 49.051,-111.673 109.467,-111.673Z"
        style="fill:#ff5733;"/><ellipse cx="437.865" cy="446.694" rx="109.466" ry="111.674"/></g><path
        d="M774.656,562.873l-651.829,-287.488l-21.753,51.332l651.828,287.488l21.754,-51.332Z"
        style="fill:#ff5733;"/></g><path
        d="M437.865,475.107l-434.273,13.672l49.738,-184.34l384.535,170.668Z"/><path
        d="M437.865,414.03l434.256,-14.207l-49.519,184.401l-384.737,-170.194Z"/></g><g><path d="M1445.24,557.571c0,34.225 -8.07,64.976 -24.209,92.253c-16.14,27.277 -39.76,48.636 -70.861,64.076c-31.101,15.44 -67.974,23.16 -110.62,23.16c-51.128,-0 -93.303,-10.551 -126.525,-31.652c-23.561,-15.183 -42.704,-35.448 -57.43,-60.795c-14.726,-25.347 -22.089,-49.987 -22.089,-73.919c-0,-13.895 4.418,-25.797 13.253,-35.704c8.836,-9.908 20.086,-14.861 33.752,-14.861c11.074,-0 20.439,3.86 28.097,11.58c7.657,7.72 14.195,19.171 19.614,34.354c6.598,18.013 13.725,33.067 21.382,45.161c7.658,12.095 18.437,22.066 32.338,29.915c13.901,7.849 32.162,11.773 54.78,11.773c31.101,0 56.371,-7.913 75.809,-23.739c19.438,-15.826 29.157,-35.576 29.157,-59.251c0,-18.785 -5.242,-34.032 -15.727,-45.74c-10.485,-11.709 -24.033,-20.651 -40.643,-26.827c-16.611,-6.176 -38.818,-12.738 -66.62,-19.686c-37.227,-9.521 -68.387,-20.651 -93.48,-33.389c-25.092,-12.738 -45.002,-30.108 -59.728,-52.11c-14.725,-22.001 -22.088,-49.343 -22.088,-82.024c-0,-31.137 7.775,-58.8 23.325,-82.99c15.551,-24.189 38.052,-42.781 67.504,-55.776c29.451,-12.996 64.086,-19.493 103.905,-19.493c31.808,-0 59.316,4.31 82.524,12.931c23.207,8.62 42.469,20.072 57.784,34.354c15.315,14.281 26.506,29.271 33.575,44.968c7.068,15.698 10.602,31.009 10.602,45.934c0,13.639 -4.418,25.926 -13.253,36.863c-8.836,10.936 -19.85,16.405 -33.045,16.405c-12.016,-0 -21.146,-3.281 -27.39,-9.843c-6.244,-6.562 -13.017,-17.306 -20.321,-32.231c-9.425,-21.359 -20.734,-38.021 -33.929,-49.987c-13.194,-11.966 -34.399,-17.949 -63.615,-17.949c-27.096,0 -48.949,6.498 -65.56,19.493c-16.61,12.995 -24.916,28.628 -24.916,46.899c0,11.323 2.828,21.101 8.482,29.336c5.655,8.234 13.43,15.311 23.326,21.23c9.896,5.918 19.909,10.55 30.041,13.896c10.131,3.345 26.86,8.234 50.185,14.668c29.216,7.462 55.664,15.697 79.343,24.703c23.679,9.007 43.824,19.944 60.435,32.81c16.611,12.867 29.569,29.143 38.876,48.829c9.307,19.686 13.96,43.811 13.96,72.375Z" style="fill:#ff5733;fill-rule:nonzero;"/>
    <path d="M1888.78,522.831c-0,31.394 -4.477,60.344 -13.43,86.849c-8.953,26.505 -21.912,49.279 -38.876,68.322c-16.964,19.042 -37.227,33.646 -60.788,43.811c-23.562,10.164 -50.068,15.247 -79.52,15.247c-29.216,-0 -55.487,-5.147 -78.812,-15.44c-23.326,-10.294 -43.53,-25.026 -60.612,-44.197c-17.082,-19.171 -30.041,-41.817 -38.876,-67.936c-8.836,-26.119 -13.253,-55.004 -13.253,-86.656c-0,-31.909 4.476,-61.117 13.43,-87.622c8.953,-26.505 21.794,-49.15 38.522,-67.935c16.729,-18.786 36.992,-33.261 60.789,-43.425c23.796,-10.165 50.067,-15.247 78.812,-15.247c29.216,-0 55.723,5.147 79.52,15.44c23.797,10.293 44.177,24.961 61.141,44.004c16.964,19.042 29.864,41.687 38.7,67.935c8.835,26.248 13.253,55.198 13.253,86.85Zm-96.837,-0c-0,-42.975 -8.659,-76.428 -25.976,-100.36c-17.318,-23.932 -40.585,-35.898 -69.801,-35.898c-18.849,0 -35.46,5.34 -49.832,16.019c-14.372,10.68 -25.446,26.441 -33.222,47.285c-7.775,20.844 -11.662,45.162 -11.662,72.954c-0,27.534 3.828,51.595 11.486,72.181c7.657,20.587 18.613,36.348 32.868,47.285c14.254,10.937 31.042,16.405 50.362,16.405c29.216,-0 52.483,-12.03 69.801,-36.091c17.317,-24.06 25.976,-57.32 25.976,-99.78Z"
          style="fill:#ff5733;fill-rule:nonzero;"/>
    <path d="M2052.41,366.888l0,12.738c16.964,-24.447 35.519,-42.396 55.664,-53.847c20.145,-11.451 43.294,-17.177 69.447,-17.177c25.446,-0 48.183,6.047 68.21,18.142c20.027,12.094 34.989,29.207 44.884,51.338c6.362,12.866 10.485,26.762 12.37,41.687c1.885,14.926 2.827,33.968 2.827,57.128l0,196.087c0,21.101 -4.417,37.056 -13.253,47.864c-8.835,10.808 -20.322,16.212 -34.458,16.212c-14.373,-0 -26.036,-5.533 -34.989,-16.598c-8.953,-11.066 -13.43,-26.892 -13.43,-47.478l0,-175.629c0,-34.74 -4.418,-61.309 -13.253,-79.709c-8.836,-18.399 -26.448,-27.599 -52.836,-27.599c-17.2,0 -32.868,5.597 -47.005,16.791c-14.137,11.194 -24.504,26.57 -31.101,46.127c-4.712,15.697 -7.069,45.033 -7.069,88.008l0,132.011c0,21.358 -4.535,37.377 -13.606,48.057c-9.071,10.679 -20.793,16.019 -35.165,16.019c-13.902,-0 -25.329,-5.533 -34.282,-16.598c-8.953,-11.066 -13.43,-26.892 -13.43,-47.478l-0,-304.552c-0,-20.072 4.005,-35.062 12.016,-44.969c8.011,-9.907 18.967,-14.861 32.868,-14.861c8.482,-0 16.14,2.187 22.972,6.562c6.833,4.375 12.311,10.936 16.435,19.686c4.123,8.749 6.184,19.428 6.184,32.038Z"
          style="fill:#ff5733;fill-rule:nonzero;"/>
    <path d="M2756.78,385.801l0,306.097c0,34.997 -3.416,65.105 -10.249,90.323c-6.833,25.219 -17.789,46.063 -32.868,62.532c-15.079,16.469 -34.812,28.692 -59.198,36.67c-24.386,7.977 -54.721,11.966 -91.006,11.966c-33.221,-0 -62.908,-5.083 -89.061,-15.247c-26.153,-10.165 -46.298,-23.289 -60.435,-39.372c-14.137,-16.083 -21.205,-32.617 -21.205,-49.601c-0,-12.866 4.005,-23.353 12.016,-31.459c8.011,-8.105 17.671,-12.158 28.98,-12.158c14.137,-0 26.507,6.819 37.109,20.457c5.184,6.948 10.544,13.961 16.081,21.037c5.537,7.077 11.663,13.124 18.378,18.142c6.715,5.018 14.785,8.749 24.209,11.194c9.425,2.445 20.263,3.667 32.515,3.667c24.975,0 44.354,-3.796 58.137,-11.387c13.784,-7.591 23.444,-18.206 28.981,-31.845c5.537,-13.638 8.776,-28.242 9.719,-43.81c0.942,-15.569 1.649,-40.595 2.12,-75.077c-14.843,22.645 -31.984,39.886 -51.422,51.724c-19.438,11.837 -42.587,17.756 -69.447,17.756c-32.279,-0 -60.494,-9.007 -84.644,-27.02c-24.151,-18.013 -42.705,-43.232 -55.664,-75.656c-12.959,-32.424 -19.438,-69.865 -19.438,-112.325c-0,-31.652 3.946,-60.216 11.84,-85.692c7.893,-25.476 19.143,-46.963 33.751,-64.461c14.608,-17.499 31.454,-30.687 50.539,-39.565c19.085,-8.878 40.054,-13.317 62.909,-13.317c27.331,-0 51.01,5.726 71.037,17.177c20.027,11.451 38.641,29.4 55.841,53.847l-0,-14.282c-0,-18.271 4.123,-32.424 12.369,-42.46c8.247,-10.036 18.849,-15.054 31.808,-15.054c18.614,-0 30.983,6.626 37.109,19.879c6.126,13.252 9.189,32.359 9.189,57.32Zm-279.555,133.556c-0,42.717 8.541,75.012 25.623,96.885c17.082,21.873 39.171,32.81 66.266,32.81c16.022,0 31.16,-4.696 45.415,-14.089c14.254,-9.392 25.858,-23.546 34.811,-42.46c8.954,-18.914 13.43,-41.88 13.43,-68.9c0,-42.975 -8.658,-76.428 -25.976,-100.36c-17.318,-23.932 -40.113,-35.898 -68.387,-35.898c-27.566,0 -49.655,11.452 -66.266,34.354c-16.611,22.903 -24.916,55.455 -24.916,97.658Z"
          style="fill:#ff5733;fill-rule:nonzero;"/>
    <path d="M3116.56,429.419l-176.709,215.773l189.079,0c15.315,0 26.86,3.924 34.635,11.773c7.776,7.849 11.663,17.949 11.663,30.301c0,11.837 -3.829,21.487 -11.486,28.95c-7.657,7.462 -19.261,11.194 -34.812,11.194l-261.531,-0c-18.377,-0 -32.102,-4.375 -41.173,-13.124c-9.071,-8.75 -13.607,-20.716 -13.607,-35.898c0,-9.007 3.181,-18.078 9.543,-27.213c6.361,-9.135 19.556,-25.926 39.583,-50.373c21.205,-25.733 40.466,-49.021 57.784,-69.865c17.317,-20.844 33.398,-40.337 48.242,-58.479c14.843,-18.142 27.154,-33.517 36.932,-46.127c9.778,-12.609 17.612,-23.417 23.503,-32.424l-143.489,0c-19.791,0 -34.753,-1.93 -44.884,-5.79c-10.132,-3.859 -15.197,-14.024 -15.197,-30.493c-0,-12.095 3.828,-21.745 11.486,-28.95c7.657,-7.205 18.554,-10.808 32.691,-10.808l221.594,-0c20.499,-0 36.226,3.281 47.182,9.843c10.956,6.562 16.434,18.335 16.434,35.319c-0,5.661 -1.06,11.515 -3.181,17.563c-2.12,6.047 -4.476,11 -7.068,14.86c-2.592,3.86 -6.126,8.557 -10.603,14.089c-4.476,5.533 -10.013,12.159 -16.611,19.879Z"
          style="fill-rule:nonzero;"/>
    <path d="M3475.28,677.616c-23.326,19.814 -45.886,34.675 -67.68,44.583c-21.795,9.907 -46.239,14.861 -73.335,14.861c-24.739,-0 -46.475,-5.34 -65.206,-16.019c-18.731,-10.68 -33.162,-25.155 -43.294,-43.425c-10.131,-18.271 -15.197,-38.085 -15.197,-59.444c0,-28.821 8.364,-53.396 25.093,-73.725c16.728,-20.33 39.701,-33.968 68.917,-40.916c6.126,-1.544 21.323,-5.018 45.591,-10.422c24.268,-5.404 45.061,-10.358 62.379,-14.861c17.317,-4.503 36.107,-9.972 56.37,-16.405c-1.178,-27.792 -6.303,-48.185 -15.374,-61.181c-9.071,-12.995 -27.861,-19.492 -56.37,-19.492c-24.504,-0 -42.941,3.731 -55.31,11.193c-12.37,7.463 -22.973,18.657 -31.808,33.582c-8.836,14.926 -15.079,24.768 -18.731,29.529c-3.652,4.761 -11.487,7.141 -23.503,7.141c-10.838,0 -20.204,-3.796 -28.097,-11.387c-7.893,-7.591 -11.839,-17.305 -11.839,-29.143c-0,-18.528 6.008,-36.541 18.024,-54.039c12.016,-17.499 30.748,-31.91 56.194,-43.232c25.446,-11.323 57.136,-16.984 95.07,-16.984c42.41,-0 75.749,5.468 100.018,16.405c24.268,10.936 41.409,28.242 51.422,51.917c10.014,23.674 15.021,55.069 15.021,94.183c-0,24.704 -0.059,45.676 -0.177,62.918c-0.118,17.241 -0.295,36.412 -0.53,57.513c-0,19.815 3.004,40.466 9.012,61.953c6.008,21.487 9.012,35.319 9.012,41.495c0,10.808 -4.653,20.651 -13.96,29.529c-9.307,8.878 -19.85,13.317 -31.631,13.317c-9.896,-0 -19.674,-5.083 -29.334,-15.247c-9.66,-10.165 -19.909,-24.897 -30.747,-44.197Zm-6.362,-152.469c-14.137,5.661 -34.694,11.644 -61.672,17.949c-26.977,6.304 -45.65,10.936 -56.017,13.896c-10.367,2.959 -20.262,8.749 -29.687,17.369c-9.425,8.621 -14.137,20.651 -14.137,36.091c0,15.955 5.537,29.529 16.611,40.723c11.074,11.194 25.564,16.791 43.471,16.791c19.084,-0 36.696,-4.568 52.836,-13.703c16.139,-9.135 27.979,-20.908 35.519,-35.319c8.717,-15.954 13.076,-42.202 13.076,-78.743l0,-15.054Z"
          style="fill-rule:nonzero;"/>
    <path d="M3741.05,212.102l0,160.962c18.143,-20.587 36.638,-36.349 55.487,-47.285c18.849,-10.937 42.175,-16.405 69.977,-16.405c32.044,-0 60.141,8.299 84.291,24.897c24.15,16.598 42.882,40.658 56.194,72.181c13.312,31.524 19.968,68.901 19.968,112.133c-0,31.909 -3.711,61.18 -11.133,87.814c-7.422,26.634 -18.201,49.73 -32.338,69.287c-14.136,19.557 -31.277,34.675 -51.422,45.355c-20.145,10.679 -42.352,16.019 -66.62,16.019c-14.844,-0 -28.804,-1.93 -41.88,-5.79c-13.077,-3.86 -24.209,-8.943 -33.398,-15.247c-9.189,-6.305 -17.023,-12.803 -23.503,-19.493c-6.479,-6.691 -15.02,-16.727 -25.623,-30.108l0,10.422c0,19.814 -4.359,34.804 -13.076,44.969c-8.718,10.164 -19.792,15.247 -33.222,15.247c-13.665,-0 -24.562,-5.083 -32.691,-15.247c-8.129,-10.165 -12.193,-25.155 -12.193,-44.969l-0,-460.11c-0,-21.358 3.947,-37.506 11.84,-48.442c7.893,-10.937 18.908,-16.405 33.044,-16.405c14.844,-0 26.271,5.211 34.282,15.633c8.011,10.422 12.016,25.283 12.016,44.582Zm4.595,313.045c-0,41.945 8.776,74.176 26.33,96.692c17.553,22.517 40.584,33.775 69.093,33.775c24.268,0 45.179,-11.516 62.732,-34.547c17.553,-23.031 26.33,-56.034 26.33,-99.008c-0,-27.792 -3.652,-51.724 -10.956,-71.796c-7.304,-20.072 -17.671,-35.576 -31.101,-46.513c-13.43,-10.936 -29.098,-16.405 -47.005,-16.405c-18.378,0 -34.753,5.469 -49.125,16.405c-14.373,10.937 -25.682,26.763 -33.929,47.478c-8.246,20.715 -12.369,45.355 -12.369,73.919Z"
          style="fill-rule:nonzero;"/>
    <path d="M4183.89,750.183l8.836,-23.545l-118.749,-326.555c-7.304,-18.785 -10.956,-32.423 -10.956,-40.915c-0,-9.007 2.12,-17.37 6.361,-25.09c4.241,-7.72 10.073,-13.896 17.495,-18.528c7.421,-4.632 15.138,-6.948 23.149,-6.948c13.901,-0 24.386,4.825 31.454,14.475c7.068,9.65 13.312,23.481 18.731,41.495l81.64,259.39l77.399,-241.248c6.126,-19.558 11.663,-34.869 16.611,-45.934c4.948,-11.066 10.19,-18.528 15.727,-22.388c5.537,-3.86 13.371,-5.79 23.502,-5.79c7.305,-0 14.314,2.123 21.029,6.369c6.715,4.246 11.898,9.971 15.55,17.177c3.652,7.205 5.478,14.796 5.478,22.774c-0.942,4.889 -2.473,11.837 -4.594,20.844c-2.121,9.006 -4.712,18.141 -7.775,27.405l-125.818,359.75c-10.838,31.652 -21.441,56.485 -31.807,74.498c-10.367,18.013 -24.092,31.845 -41.174,41.495c-17.082,9.65 -40.113,14.475 -69.093,14.475c-28.274,-0 -49.479,-3.346 -63.616,-10.036c-14.137,-6.691 -21.205,-18.914 -21.205,-36.67c-0,-12.095 3.357,-21.423 10.072,-27.985c6.715,-6.562 16.67,-9.843 29.864,-9.843c5.184,0 10.249,0.772 15.197,2.316c6.126,1.544 11.428,2.316 15.904,2.316c11.074,0 19.792,-1.801 26.153,-5.404c6.362,-3.602 12.075,-9.843 17.141,-18.721c5.066,-8.878 10.897,-21.937 17.494,-39.179Z"
          style="fill-rule:nonzero;"/></g></g></g></svg>