<?xml version="1.0" encoding="UTF-8" standalone="no"?><!DOCTYPE svg PUBLIC "-//W3C//DTD SVG 1.1//EN"
        "http://www.w3.org/Graphics/SVG/1.1/DTD/svg11.dtd">
<svg width="100%" height="100%" viewBox="0 0 876 894" version="1.1"
     xmlns="http://www.w3.org/2000/svg" xmlns:xlink="http://www.w3.org/1999/xlink"
     xml:space="preserve" xmlns:serif="http://www.serif.com/"
     style="fill-rule:evenodd;clip-rule:evenodd;stroke-linejoin:round;stroke-miterlimit:2;"><g><g><g><path d="M437.865,-0c241.664,-0 437.864,200.157 437.864,446.694c0,246.538 -196.2,446.695 -437.864,446.695c-241.664,-0 -437.865,-200.157 -437.865,-446.695c0,-246.537 196.201,-446.694 437.865,-446.694Zm382.793,463.235c-0.156,3.821 -0.366,7.628 -0.629,11.418c-1.612,23.23 -5.22,45.907 -10.648,67.852l-0.162,0.651l-0.294,1.172c-0.099,0.389 -0.198,0.779 -0.297,1.169l-0.3,1.169c-2.415,9.32 -5.158,18.506 -8.218,27.543c-7.711,22.77 -17.427,44.59 -28.935,65.242l-0.395,0.707l-0.07,0.125c-9.135,16.298 -19.387,31.863 -30.649,46.586l-0.115,0.15l-0.281,0.366c-0.379,0.494 -0.76,0.988 -1.142,1.481c-1.899,2.45 -3.833,4.884 -5.795,7.294c-3.101,3.81 -6.267,7.553 -9.501,11.233l-0.27,0.307l-0.689,0.782c-0.801,0.904 -1.6,1.799 -2.404,2.69l-0.779,0.862l-0.708,0.777c-0.331,0.363 -0.658,0.72 -0.985,1.077c-2.846,3.097 -5.732,6.138 -8.666,9.13c-2.568,2.62 -5.172,5.202 -7.811,7.747l-0.436,0.42c-2.38,2.287 -4.781,4.537 -7.211,6.756c-1.01,0.923 -2.015,1.831 -3.025,2.735c-2.234,1.997 -4.481,3.96 -6.75,5.897l-0.21,0.18l-0.884,0.751c-0.544,0.461 -1.082,0.914 -1.621,1.366c-2.151,1.801 -4.311,3.572 -6.491,5.319l-0.848,0.678c-0.302,0.24 -0.605,0.481 -0.908,0.721l-0.91,0.719c-0.508,0.4 -1.03,0.809 -1.553,1.216c-15.254,11.883 -31.406,22.623 -48.333,32.096c-2.604,1.456 -5.23,2.886 -7.875,4.285c-7.07,3.74 -14.262,7.26 -21.573,10.553l-1.067,0.478c-24.546,10.967 -50.44,19.38 -77.351,24.913c-1.954,0.401 -3.907,0.787 -5.866,1.157c-1.663,0.314 -3.319,0.616 -4.979,0.906c-1.795,0.315 -3.604,0.618 -5.417,0.908c-1.662,0.266 -3.329,0.521 -4.999,0.766l-1.192,0.172l-1.194,0.169c-2.339,0.326 -4.691,0.632 -7.048,0.916c-1.996,0.241 -3.999,0.465 -6.006,0.674c-2.881,0.301 -5.75,0.566 -8.628,0.799c-10.132,0.82 -20.356,1.237 -30.675,1.237c-51.278,-0 -100.217,-10.299 -144.921,-28.973c-0.669,-0.279 -1.335,-0.559 -2,-0.842l-1.077,-0.459c-1.765,-0.756 -3.519,-1.523 -5.266,-2.302l-0.092,-0.041l-0.712,-0.319c-15.483,-6.952 -30.421,-14.916 -44.742,-23.811c-4.413,-2.741 -8.759,-5.564 -13.045,-8.473c-0.859,-0.584 -1.725,-1.177 -2.588,-1.773l-0.662,-0.458l-0.171,-0.119c-7.56,-5.251 -14.928,-10.773 -22.089,-16.55c-0.39,-0.315 -0.77,-0.623 -1.15,-0.932c-4.645,-3.778 -9.207,-7.666 -13.677,-11.658l-0.215,-0.192l-0.761,-0.683c-1.758,-1.58 -3.496,-3.172 -5.22,-4.78c-0.355,-0.331 -0.71,-0.664 -1.065,-0.998l-0.642,-0.603l-0.335,-0.318c-2.879,-2.724 -5.724,-5.5 -8.527,-8.32c-0.832,-0.837 -1.669,-1.687 -2.502,-2.54l-0.215,-0.22l-0.809,-0.833l-0.212,-0.219c-1.608,-1.663 -3.2,-3.339 -4.778,-5.03l-0.605,-0.649c-0.263,-0.284 -0.526,-0.568 -0.789,-0.852l-0.787,-0.855l-0.785,-0.857c-0.353,-0.388 -0.704,-0.774 -1.054,-1.16c-0.873,-0.964 -1.733,-1.924 -2.588,-2.888c-2.423,-2.731 -4.809,-5.496 -7.157,-8.296c-7.564,-9.02 -14.727,-18.389 -21.468,-28.085c-2.695,-3.876 -5.333,-7.82 -7.9,-11.813c-0.308,-0.479 -0.617,-0.961 -0.924,-1.444c-3.422,-5.374 -6.711,-10.829 -9.871,-16.369l-0.361,-0.634l-0.579,-1.022l-0.505,-0.899c-31.996,-57.09 -50.286,-123.178 -50.286,-193.589c0,-130.187 62.526,-245.593 158.596,-316.649c39.129,-28.943 83.836,-50.529 132.149,-62.749l0.131,-0.033c0.384,-0.097 0.769,-0.193 1.153,-0.29l1.025,-0.253c0.44,-0.109 0.861,-0.212 1.283,-0.314c3.427,-0.831 6.853,-1.61 10.295,-2.343l0.158,-0.033l0.094,-0.02c11.962,-2.536 24.122,-4.502 36.457,-5.87c4.166,-0.462 8.361,-0.856 12.574,-1.181l0.972,-0.074l0.725,-0.053c0.554,-0.041 1.132,-0.081 1.711,-0.121c8.536,-0.58 17.139,-0.874 25.809,-0.874c211.456,-0 383.131,175.137 383.131,390.857c0,5.544 -0.113,11.062 -0.338,16.541Z"/><path
        d="M437.865,167.51c151.04,0 273.665,125.099 273.665,279.184c0,154.086 -122.625,279.184 -273.665,279.184c-151.04,0 -273.666,-125.098 -273.666,-279.184c0,-154.085 122.626,-279.184 273.666,-279.184Zm-0,55.837c120.832,0 218.932,100.079 218.932,223.347c-0,123.269 -98.1,223.348 -218.932,223.348c-120.832,-0 -218.933,-100.079 -218.933,-223.348c0,-123.268 98.101,-223.347 218.933,-223.347Z"
        style="fill:#ff5733;"/><path
        d="M437.865,55.837c211.456,-0 383.131,175.137 383.131,390.857c0,215.721 -171.675,390.858 -383.131,390.858c-211.456,-0 -383.132,-175.137 -383.132,-390.858c0,-215.72 171.676,-390.857 383.132,-390.857Zm-0,55.837c181.248,-0 328.398,150.117 328.398,335.02c0,184.903 -147.15,335.021 -328.398,335.021c-181.248,0 -328.399,-150.118 -328.399,-335.021c0,-184.903 147.151,-335.02 328.399,-335.02Z"
        style="fill:#ff5733;"/><path
        d="M437.865,111.674c181.248,-0 328.398,150.117 328.398,335.02c0,184.903 -147.15,335.021 -328.398,335.021c-181.248,0 -328.399,-150.118 -328.399,-335.021c0,-184.903 147.151,-335.02 328.399,-335.02Zm-0,55.836c151.04,0 273.665,125.099 273.665,279.184c0,154.086 -122.625,279.184 -273.665,279.184c-151.04,0 -273.666,-125.098 -273.666,-279.184c0,-154.085 122.626,-279.184 273.666,-279.184Z"/><path
        d="M437.865,223.347c120.832,0 218.932,100.079 218.932,223.347c-0,123.269 -98.1,223.348 -218.932,223.348c-120.832,-0 -218.933,-100.079 -218.933,-223.348c0,-123.268 98.101,-223.347 218.933,-223.347Zm-0,55.837c90.624,-0 164.199,75.059 164.199,167.51c-0,92.452 -73.575,167.511 -164.199,167.511c-90.624,-0 -164.2,-75.059 -164.2,-167.511c0,-92.451 73.576,-167.51 164.2,-167.51Z"/><path
        d="M437.865,279.184c90.624,-0 164.199,75.059 164.199,167.51c-0,92.452 -73.575,167.511 -164.199,167.511c-90.624,-0 -164.2,-75.059 -164.2,-167.511c0,-92.451 73.576,-167.51 164.2,-167.51Zm-0,55.837c60.416,-0 109.466,50.039 109.466,111.673c-0,61.635 -49.05,111.674 -109.466,111.674c-60.416,-0 -109.467,-50.039 -109.467,-111.674c0,-61.634 49.051,-111.673 109.467,-111.673Z"
        style="fill:#ff5733;"/><ellipse cx="437.865" cy="446.694" rx="109.466" ry="111.674"/></g><path
        d="M774.656,562.873l-651.829,-287.488l-21.753,51.332l651.828,287.488l21.754,-51.332Z"
        style="fill:#ff5733;"/></g><path
        d="M437.865,475.107l-434.273,13.672l49.738,-184.34l384.535,170.668Z"/><path
        d="M437.865,414.03l434.256,-14.207l-49.519,184.401l-384.737,-170.194Z"/></g></svg>